<?xml version="1.0" encoding="utf-8"?>
<!-- Generator: Adobe Illustrator 26.1.0, SVG Export Plug-In . SVG Version: 6.00 Build 0)  -->
<svg version="1.1" id="Ebene_1" xmlns="http://www.w3.org/2000/svg" xmlns:xlink="http://www.w3.org/1999/xlink" x="0px" y="0px"
	 viewBox="0 0 1514.67 1514.67" style="enable-background:new 0 0 1514.67 1514.67;" xml:space="preserve">
<style type="text/css">
	.st0{fill:url(#SVGID_1_);}
	.st1{fill:url(#SVGID_00000093863959565238363280000008474145128925389503_);}
</style>
<g>
	<g>
		<radialGradient id="SVGID_1_" cx="742.6292" cy="913.472" r="1110.476" gradientUnits="userSpaceOnUse">
			<stop  offset="0" style="stop-color:#E0EDD7"/>
			<stop  offset="0.8825" style="stop-color:#F3D0E5"/>
		</radialGradient>
		<path class="st0" d="M1514.67,757.33c0,75.02-10.91,147.49-31.23,215.92c-92.96,313.07-382.86,541.42-726.11,541.42
			c-269.14,0-505.5-140.4-639.81-351.95C43.1,1045.51,0,906.45,0,757.33C0,339.07,339.07,0,757.34,0S1514.67,339.07,1514.67,757.33z
			"/>
		
			<linearGradient id="SVGID_00000021820474470132742550000008840494416097001362_" gradientUnits="userSpaceOnUse" x1="810.585" y1="1456.9557" x2="788.65" y2="612.4598">
			<stop  offset="0.2486" style="stop-color:#B993B8"/>
			<stop  offset="0.5642" style="stop-color:#CAA7C9"/>
		</linearGradient>
		<path style="fill:url(#SVGID_00000021820474470132742550000008840494416097001362_);" d="M1483.44,973.25
			c-92.96,313.07-382.86,541.42-726.11,541.42c-269.14,0-505.5-140.4-639.81-351.95l14.13-89.26l40.55-33.55l37.24-70.51h36.17
			l30.21-29.84l74.8,104.59l78.09-274.67l33.95-51.36l34.58-90.18l68.98-17.3l78.7,50.8L710.87,637l34.41,59.93l35.42,49.51
			l62.66-10.63l106.13,24.73l52.3,44.91l85.6-48.46l60.65,45.55l85.45,1.43l58.89,59.05l24.54,5.1l59.19,50.78l76.16-2.08
			L1483.44,973.25z"/>
	</g>
</g>
</svg>
