<?xml version="1.0" encoding="utf-8"?>
<!-- Generator: Adobe Illustrator 26.1.0, SVG Export Plug-In . SVG Version: 6.00 Build 0)  -->
<svg version="1.1" id="Layer_1" xmlns="http://www.w3.org/2000/svg" xmlns:xlink="http://www.w3.org/1999/xlink" x="0px" y="0px"
	 viewBox="0 0 5283.47 2565.18" style="enable-background:new 0 0 5283.47 2565.18;" xml:space="preserve">
<style type="text/css">
	.st0{fill:url(#SVGID_1_);}
	.st1{fill:url(#SVGID_00000034065916538380409940000018077710709096276367_);}
	.st2{fill:url(#SVGID_00000090265545890937644940000018218826513358527641_);}
	.st3{fill:url(#SVGID_00000066504531257889699820000010892326946914619040_);}
	.st4{fill:url(#SVGID_00000010274825014773224960000014323601893769082524_);}
	.st5{fill:url(#SVGID_00000154426496017714214310000001980155419707662730_);}
</style>
<g>
	<g>
		<g>
			<g>
				<g>
					
						<linearGradient id="SVGID_1_" gradientUnits="userSpaceOnUse" x1="2902.5339" y1="-11.8029" x2="2964.644" y2="-11.8029" gradientTransform="matrix(1 0 0 1 0 1437.72)">
						<stop  offset="0.1089" style="stop-color:#B992B7"/>
						<stop  offset="0.2486" style="stop-color:#B992B7"/>
					</linearGradient>
					<path class="st0" d="M2902.53,1879.84V971.99c0-11.89,3.96-18.5,15.86-18.5h30.39c11.89,0,15.86,6.61,15.86,18.5v907.85
						c0,11.89-3.96,18.5-15.86,18.5h-30.39C2906.49,1898.34,2902.53,1891.73,2902.53,1879.84z"/>
					
						<linearGradient id="SVGID_00000070798648161503397220000004547801759075599769_" gradientUnits="userSpaceOnUse" x1="3181.354" y1="144.787" x2="3703.3342" y2="144.787" gradientTransform="matrix(1 0 0 1 0 1437.72)">
						<stop  offset="0.1089" style="stop-color:#B992B7"/>
						<stop  offset="0.2486" style="stop-color:#B992B7"/>
					</linearGradient>
					<path style="fill:url(#SVGID_00000070798648161503397220000004547801759075599769_);" d="M3181.35,1651.22v-381.9
						c0-11.89,3.96-18.5,15.86-18.5h31.72c11.89,0,15.86,6.61,15.86,18.5v384.55c0,122.9,67.4,199.54,185,199.54
						c117.61,0,210.11-76.65,210.11-199.54v-384.55c0-11.89,3.97-18.5,15.86-18.5h30.39c11.9,0,17.18,6.61,17.18,18.5v610.52
						c0,11.89-5.29,18.5-17.18,18.5h-25.11c-14.53,0-17.18-5.29-18.5-19.82l-2.64-85.9c-37,66.07-111,121.57-223.33,121.57
						C3275.17,1914.2,3181.35,1824.34,3181.35,1651.22z"/>
					
						<linearGradient id="SVGID_00000158003690535332178380000011093999843692436870_" gradientUnits="userSpaceOnUse" x1="3885.6738" y1="136.8621" x2="4542.4438" y2="136.8621" gradientTransform="matrix(1 0 0 1 0 1437.72)">
						<stop  offset="0.1089" style="stop-color:#B992B7"/>
						<stop  offset="0.2486" style="stop-color:#B992B7"/>
					</linearGradient>
					<path style="fill:url(#SVGID_00000158003690535332178380000011093999843692436870_);" d="M3885.67,1574.58
						c0-192.93,141.4-339.62,329.05-339.62c186.32,0,327.72,146.68,327.72,339.62s-141.4,339.62-327.72,339.62
						C4027.07,1914.2,3885.67,1767.51,3885.67,1574.58z M4214.72,1853.41c151.97,0,265.61-116.29,265.61-278.83
						s-113.65-278.83-265.61-278.83c-153.29,0-266.94,116.29-266.94,278.83S4061.43,1853.41,4214.72,1853.41z"/>
					
						<linearGradient id="SVGID_00000057130896315120378730000004908507481013703832_" gradientUnits="userSpaceOnUse" x1="4645.2188" y1="136.8622" x2="5141.7378" y2="136.8622" gradientTransform="matrix(1 0 0 1 0 1437.72)">
						<stop  offset="0.1089" style="stop-color:#B992B7"/>
						<stop  offset="0.2486" style="stop-color:#B992B7"/>
					</linearGradient>
					<path style="fill:url(#SVGID_00000057130896315120378730000004908507481013703832_);" d="M4650.78,1875.87l204.83-307.9
						l-195.58-294.69c-7.93-13.21-3.96-22.46,9.25-22.46h35.68c10.57,0,15.86,3.96,21.15,13.21l167.82,260.33l166.5-260.33
						c5.29-9.25,11.9-13.21,22.47-13.21h34.36c14.53,0,17.18,9.25,9.25,22.46l-194.26,294.69l204.83,307.9
						c9.25,13.22,3.96,22.47-9.25,22.47h-35.68c-10.57,0-15.86-3.96-21.14-13.21l-177.08-273.55l-177.08,273.55
						c-5.29,9.25-11.89,13.21-22.46,13.21h-34.36C4645.49,1898.34,4640.2,1889.09,4650.78,1875.87z"/>
				</g>
			</g>
		</g>
	</g>
	<g>
		
			<radialGradient id="SVGID_00000124850196611456482560000016047202168832833414_" cx="1260.442" cy="80.0819" r="1672.8383" gradientTransform="matrix(1 0 0 1 0 1437.72)" gradientUnits="userSpaceOnUse">
			<stop  offset="0" style="stop-color:#E0F0D7"/>
			<stop  offset="0.8825" style="stop-color:#FAD0F1"/>
		</radialGradient>
		<path style="fill:url(#SVGID_00000124850196611456482560000016047202168832833414_);" d="M2423.45,1282.59
			c0,113.01-16.43,222.19-47.04,325.26c-140.03,471.62-576.75,815.6-1093.82,815.6c-405.44,0-761.49-211.5-963.82-530.18
			c-112.11-176.57-177.04-386.05-177.04-610.68c0-630.08,510.78-1140.86,1140.86-1140.86S2423.45,652.51,2423.45,1282.59z"/>
		
			<linearGradient id="SVGID_00000121262483833592507750000016334341040584879536_" gradientUnits="userSpaceOnUse" x1="1362.8134" y1="898.7939" x2="1329.7701" y2="-373.3677" gradientTransform="matrix(1 0 0 1 0 1437.72)">
			<stop  offset="0.2486" style="stop-color:#B992B7"/>
			<stop  offset="0.5642" style="stop-color:#C9A6C8"/>
		</linearGradient>
		<path style="fill:url(#SVGID_00000121262483833592507750000016334341040584879536_);" d="M2376.41,1607.85
			c-140.03,471.62-576.75,815.6-1093.82,815.6c-405.44,0-761.49-211.5-963.82-530.18l21.28-134.47l61.08-50.53l56.1-106.22h54.49
			l45.5-44.95l112.69,157.55l117.63-413.76l51.14-77.37l52.1-135.86l103.9-26.07l118.56,76.53l99.35-36.8l51.83,90.28l53.35,74.58
			l94.39-16.01l159.87,37.26l78.79,67.65l128.94-73l91.36,68.62l128.72,2.16l88.71,88.95l36.96,7.68l89.17,76.49l114.73-3.13
			L2376.41,1607.85z"/>
	</g>
</g>
</svg>
