<?xml version="1.0" encoding="utf-8"?>
<!-- Generator: Adobe Illustrator 26.1.0, SVG Export Plug-In . SVG Version: 6.00 Build 0)  -->
<svg version="1.1" id="Layer_1" xmlns="http://www.w3.org/2000/svg" xmlns:xlink="http://www.w3.org/1999/xlink" x="0px" y="0px"
	 viewBox="0 0 5000 2848.65" style="enable-background:new 0 0 5000 2848.65;" xml:space="preserve">
<style type="text/css">
	.st0{fill:url(#SVGID_1_);}
	.st1{fill:url(#SVGID_00000135686229412671335550000017021621235229344143_);}
	.st2{fill:url(#SVGID_00000127754549169199188240000008370682015721804422_);}
	.st3{fill:url(#SVGID_00000114064120936966804510000009903512285674369159_);}
	.st4{fill:url(#SVGID_00000021820063590565896450000004063323019677454219_);}
	.st5{fill:url(#SVGID_00000178901847064858477230000018381585534802322861_);}
</style>
<g>
	<g>
		<g>
			<g>
				<g>
					
						<linearGradient id="SVGID_1_" gradientUnits="userSpaceOnUse" x1="2760.8" y1="129.9294" x2="2822.9102" y2="129.9294" gradientTransform="matrix(1 0 0 1 0 1437.72)">
						<stop  offset="0.1089" style="stop-color:#B992B7"/>
						<stop  offset="0.2486" style="stop-color:#B992B7"/>
					</linearGradient>
					<path class="st0" d="M2760.8,2021.57v-907.85c0-11.89,3.96-18.5,15.86-18.5h30.39c11.89,0,15.86,6.61,15.86,18.5v907.85
						c0,11.89-3.96,18.5-15.86,18.5h-30.39C2764.76,2040.07,2760.8,2033.46,2760.8,2021.57z"/>
					
						<linearGradient id="SVGID_00000172440660997052392760000001349555688812503708_" gradientUnits="userSpaceOnUse" x1="3039.6201" y1="286.5192" x2="3561.6003" y2="286.5192" gradientTransform="matrix(1 0 0 1 0 1437.72)">
						<stop  offset="0.1089" style="stop-color:#B992B7"/>
						<stop  offset="0.2486" style="stop-color:#B992B7"/>
					</linearGradient>
					<path style="fill:url(#SVGID_00000172440660997052392760000001349555688812503708_);" d="M3039.62,1792.95v-381.9
						c0-11.89,3.96-18.5,15.86-18.5h31.72c11.89,0,15.86,6.61,15.86,18.5v384.55c0,122.9,67.4,199.54,185,199.54
						c117.61,0,210.11-76.65,210.11-199.54v-384.55c0-11.89,3.97-18.5,15.86-18.5h30.39c11.9,0,17.18,6.61,17.18,18.5v610.52
						c0,11.89-5.29,18.5-17.18,18.5h-25.11c-14.53,0-17.18-5.29-18.5-19.82l-2.64-85.9c-37,66.07-111,121.57-223.33,121.57
						C3133.44,2055.93,3039.62,1966.07,3039.62,1792.95z"/>
					
						<linearGradient id="SVGID_00000041993250078374543190000010593832126191825813_" gradientUnits="userSpaceOnUse" x1="3743.9399" y1="278.5944" x2="4400.71" y2="278.5944" gradientTransform="matrix(1 0 0 1 0 1437.72)">
						<stop  offset="0.1089" style="stop-color:#B992B7"/>
						<stop  offset="0.2486" style="stop-color:#B992B7"/>
					</linearGradient>
					<path style="fill:url(#SVGID_00000041993250078374543190000010593832126191825813_);" d="M3743.94,1716.31
						c0-192.93,141.4-339.62,329.05-339.62c186.32,0,327.72,146.68,327.72,339.62s-141.4,339.62-327.72,339.62
						C3885.34,2055.93,3743.94,1909.24,3743.94,1716.31z M4072.99,1995.14c151.97,0,265.61-116.29,265.61-278.83
						s-113.65-278.83-265.61-278.83c-153.29,0-266.94,116.29-266.94,278.83S3919.7,1995.14,4072.99,1995.14z"/>
					
						<linearGradient id="SVGID_00000163782842358134058980000017725643893428857236_" gradientUnits="userSpaceOnUse" x1="4503.4849" y1="278.5945" x2="5000.0039" y2="278.5945" gradientTransform="matrix(1 0 0 1 0 1437.72)">
						<stop  offset="0.1089" style="stop-color:#B992B7"/>
						<stop  offset="0.2486" style="stop-color:#B992B7"/>
					</linearGradient>
					<path style="fill:url(#SVGID_00000163782842358134058980000017725643893428857236_);" d="M4509.05,2017.6l204.83-307.9
						l-195.58-294.69c-7.93-13.21-3.96-22.46,9.25-22.46h35.68c10.57,0,15.86,3.96,21.15,13.21l167.82,260.33l166.5-260.33
						c5.29-9.25,11.9-13.21,22.47-13.21h34.36c14.53,0,17.18,9.25,9.25,22.46l-194.26,294.69l204.83,307.9
						c9.25,13.22,3.96,22.47-9.25,22.47h-35.68c-10.57,0-15.86-3.96-21.14-13.21l-177.08-273.55l-177.08,273.55
						c-5.29,9.25-11.89,13.21-22.46,13.21h-34.36C4503.76,2040.07,4498.47,2030.82,4509.05,2017.6z"/>
				</g>
			</g>
		</g>
	</g>
	<g>
		
			<radialGradient id="SVGID_00000008111541735522542800000000654979906150006427_" cx="1118.7081" cy="221.8141" r="1672.8383" gradientTransform="matrix(1 0 0 1 0 1437.72)" gradientUnits="userSpaceOnUse">
			<stop  offset="0" style="stop-color:#E0F0D7"/>
			<stop  offset="0.8825" style="stop-color:#FAD0F1"/>
		</radialGradient>
		<path style="fill:url(#SVGID_00000008111541735522542800000000654979906150006427_);" d="M2281.72,1424.32
			c0,113.01-16.43,222.19-47.04,325.26c-140.03,471.62-576.75,815.6-1093.82,815.6c-405.44,0-761.49-211.5-963.82-530.18
			C64.93,1858.43,0,1648.95,0,1424.32C0,794.24,510.78,283.46,1140.86,283.46S2281.72,794.24,2281.72,1424.32z"/>
		
			<linearGradient id="SVGID_00000147194331710145370760000002375869393140570534_" gradientUnits="userSpaceOnUse" x1="1221.0795" y1="1040.5262" x2="1188.0363" y2="-231.6354" gradientTransform="matrix(1 0 0 1 0 1437.72)">
			<stop  offset="0.2486" style="stop-color:#B992B7"/>
			<stop  offset="0.5642" style="stop-color:#C9A6C8"/>
		</linearGradient>
		<path style="fill:url(#SVGID_00000147194331710145370760000002375869393140570534_);" d="M2234.68,1749.58
			c-140.03,471.62-576.75,815.6-1093.82,815.6c-405.44,0-761.49-211.5-963.82-530.18l21.28-134.47L259.4,1850l56.1-106.22h54.49
			l45.5-44.95l112.69,157.55l117.63-413.76l51.14-77.37l52.1-135.86l103.9-26.07l118.56,76.53l99.35-36.8l51.83,90.28l53.35,74.58
			l94.39-16.01l159.87,37.26l78.79,67.65l128.94-73l91.36,68.62l128.72,2.16l88.71,88.95l36.96,7.68l89.17,76.49l114.73-3.13
			L2234.68,1749.58z"/>
	</g>
</g>
</svg>
