<?xml version="1.0" encoding="utf-8"?>
<!-- Generator: Adobe Illustrator 26.1.0, SVG Export Plug-In . SVG Version: 6.00 Build 0)  -->
<svg version="1.1" id="Layer_1" xmlns="http://www.w3.org/2000/svg" xmlns:xlink="http://www.w3.org/1999/xlink" x="0px" y="0px"
	 viewBox="0 0 5000 2868.59" style="enable-background:new 0 0 5000 2868.59;" xml:space="preserve">
<style type="text/css">
	.st0{fill:url(#SVGID_1_);}
	.st1{fill:url(#SVGID_00000003068040773191999340000012743845239313347458_);}
	.st2{fill:url(#SVGID_00000093869173936223705310000016081712792789096895_);}
	.st3{fill:url(#SVGID_00000093867614620474204620000005603590007851229879_);}
	.st4{fill:url(#SVGID_00000062150700943901891830000007086869077987807898_);}
	.st5{fill:url(#SVGID_00000085969168709050205670000005789024496138532748_);}
</style>
<g>
	<g>
		<g>
			<g>
				<g>
					
						<linearGradient id="SVGID_1_" gradientUnits="userSpaceOnUse" x1="2760.8" y1="373.3903" x2="2822.9102" y2="373.3903" gradientTransform="matrix(1 0 0 1 0 1437.72)">
						<stop  offset="0.1089" style="stop-color:#B992B7"/>
						<stop  offset="0.2486" style="stop-color:#B992B7"/>
					</linearGradient>
					<path class="st0" d="M2760.8,2265.04v-907.85c0-11.89,3.96-18.5,15.86-18.5h30.39c11.89,0,15.86,6.61,15.86,18.5v907.85
						c0,11.89-3.96,18.5-15.86,18.5h-30.39C2764.76,2283.54,2760.8,2276.93,2760.8,2265.04z"/>
					
						<linearGradient id="SVGID_00000103263614534960374530000010515689755048997529_" gradientUnits="userSpaceOnUse" x1="3039.6201" y1="529.9801" x2="3561.6003" y2="529.9801" gradientTransform="matrix(1 0 0 1 0 1437.72)">
						<stop  offset="0.1089" style="stop-color:#B992B7"/>
						<stop  offset="0.2486" style="stop-color:#B992B7"/>
					</linearGradient>
					<path style="fill:url(#SVGID_00000103263614534960374530000010515689755048997529_);" d="M3039.62,2036.42v-381.9
						c0-11.89,3.96-18.5,15.86-18.5h31.72c11.89,0,15.86,6.61,15.86,18.5v384.55c0,122.9,67.4,199.54,185,199.54
						c117.61,0,210.11-76.65,210.11-199.54v-384.55c0-11.89,3.97-18.5,15.86-18.5h30.39c11.9,0,17.18,6.61,17.18,18.5v610.52
						c0,11.89-5.29,18.5-17.18,18.5h-25.11c-14.53,0-17.18-5.29-18.5-19.82l-2.64-85.9c-37,66.07-111,121.57-223.33,121.57
						C3133.44,2299.4,3039.62,2209.54,3039.62,2036.42z"/>
					
						<linearGradient id="SVGID_00000022541954577248925530000007369720706213715371_" gradientUnits="userSpaceOnUse" x1="3743.9399" y1="522.0552" x2="4400.71" y2="522.0552" gradientTransform="matrix(1 0 0 1 0 1437.72)">
						<stop  offset="0.1089" style="stop-color:#B992B7"/>
						<stop  offset="0.2486" style="stop-color:#B992B7"/>
					</linearGradient>
					<path style="fill:url(#SVGID_00000022541954577248925530000007369720706213715371_);" d="M3743.94,1959.78
						c0-192.93,141.4-339.62,329.05-339.62c186.32,0,327.72,146.68,327.72,339.62s-141.4,339.62-327.72,339.62
						C3885.34,2299.4,3743.94,2152.71,3743.94,1959.78z M4072.99,2238.61c151.97,0,265.61-116.29,265.61-278.83
						s-113.65-278.83-265.61-278.83c-153.29,0-266.94,116.29-266.94,278.83S3919.7,2238.61,4072.99,2238.61z"/>
					
						<linearGradient id="SVGID_00000091725634268322293390000002511813781764187069_" gradientUnits="userSpaceOnUse" x1="4503.4849" y1="522.0554" x2="5000.0039" y2="522.0554" gradientTransform="matrix(1 0 0 1 0 1437.72)">
						<stop  offset="0.1089" style="stop-color:#B992B7"/>
						<stop  offset="0.2486" style="stop-color:#B992B7"/>
					</linearGradient>
					<path style="fill:url(#SVGID_00000091725634268322293390000002511813781764187069_);" d="M4509.05,2261.07l204.83-307.9
						l-195.58-294.69c-7.93-13.21-3.96-22.46,9.25-22.46h35.68c10.57,0,15.86,3.96,21.15,13.21l167.82,260.33l166.5-260.33
						c5.29-9.25,11.9-13.21,22.47-13.21h34.36c14.53,0,17.18,9.25,9.25,22.46l-194.26,294.69l204.83,307.9
						c9.25,13.22,3.96,22.47-9.25,22.47h-35.68c-10.57,0-15.86-3.96-21.14-13.21l-177.08-273.55l-177.08,273.55
						c-5.29,9.25-11.89,13.21-22.46,13.21h-34.36C4503.76,2283.54,4498.47,2274.29,4509.05,2261.07z"/>
				</g>
			</g>
		</g>
	</g>
	<g>
		
			<radialGradient id="SVGID_00000078744884287971707160000001784739971244996747_" cx="1118.7081" cy="465.275" r="1672.8383" gradientTransform="matrix(1 0 0 1 0 1437.72)" gradientUnits="userSpaceOnUse">
			<stop  offset="0" style="stop-color:#E0F0D7"/>
			<stop  offset="0.8825" style="stop-color:#FAD0F1"/>
		</radialGradient>
		<path style="fill:url(#SVGID_00000078744884287971707160000001784739971244996747_);" d="M2281.72,1667.79
			c0,113.01-16.43,222.19-47.04,325.26c-140.03,471.62-576.75,815.6-1093.82,815.6c-405.44,0-761.49-211.5-963.82-530.18
			C64.93,2101.9,0,1892.42,0,1667.79C0,1037.71,510.78,526.93,1140.86,526.93S2281.72,1037.71,2281.72,1667.79z"/>
		
			<linearGradient id="SVGID_00000088093224681915645200000008491278263599816099_" gradientUnits="userSpaceOnUse" x1="1221.0795" y1="1283.9872" x2="1188.0363" y2="11.8255" gradientTransform="matrix(1 0 0 1 0 1437.72)">
			<stop  offset="0.2486" style="stop-color:#B992B7"/>
			<stop  offset="0.5642" style="stop-color:#C9A6C8"/>
		</linearGradient>
		<path style="fill:url(#SVGID_00000088093224681915645200000008491278263599816099_);" d="M2234.68,1993.05
			c-140.03,471.62-576.75,815.6-1093.82,815.6c-405.44,0-761.49-211.5-963.82-530.18L198.32,2144l61.08-50.53l56.1-106.22h54.49
			l45.5-44.95l112.69,157.55l117.63-413.76l51.14-77.37l52.1-135.86l103.9-26.07l118.56,76.53l99.35-36.8l51.83,90.28l53.35,74.58
			l94.39-16.01l159.87,37.26l78.79,67.65l128.94-73l91.36,68.62l128.72,2.16l88.71,88.95l36.96,7.68l89.17,76.49l114.73-3.13
			L2234.68,1993.05z"/>
	</g>
</g>
</svg>
