<?xml version="1.0" encoding="utf-8"?>
<!-- Generator: Adobe Illustrator 26.1.0, SVG Export Plug-In . SVG Version: 6.00 Build 0)  -->
<svg version="1.1" id="Layer_1" xmlns="http://www.w3.org/2000/svg" xmlns:xlink="http://www.w3.org/1999/xlink" x="0px" y="0px"
	 viewBox="0 0 5000 2281.72" style="enable-background:new 0 0 5000 2281.72;" xml:space="preserve">
<style type="text/css">
	.st0{fill:url(#SVGID_1_);}
	.st1{fill:url(#SVGID_00000063602717914182734710000015331433168293162884_);}
	.st2{fill:url(#SVGID_00000136380636610488482930000003055599725394764215_);}
	.st3{fill:url(#SVGID_00000158022309731639881690000008066395587254736002_);}
	.st4{fill:url(#SVGID_00000091725154160046652220000003332488855141475511_);}
	.st5{fill:url(#SVGID_00000012448890862569076600000000665373224390598530_);}
</style>
<g>
	<g>
		<g>
			<g>
				<g>
					
						<linearGradient id="SVGID_1_" gradientUnits="userSpaceOnUse" x1="2760.8" y1="995.4248" x2="2822.9102" y2="995.4248" gradientTransform="matrix(1 0 0 -1 0 2279.6099)">
						<stop  offset="0.1089" style="stop-color:#B992B7"/>
						<stop  offset="0.2486" style="stop-color:#B992B7"/>
					</linearGradient>
					<path class="st0" d="M2760.8,1738.11V830.26c0-11.89,3.96-18.5,15.86-18.5h30.39c11.89,0,15.86,6.61,15.86,18.5v907.85
						c0,11.89-3.96,18.5-15.86,18.5h-30.39C2764.76,1756.61,2760.8,1750,2760.8,1738.11z"/>
					
						<linearGradient id="SVGID_00000023282587358395229900000006836686183698608029_" gradientUnits="userSpaceOnUse" x1="3039.6201" y1="838.8349" x2="3561.6003" y2="838.8349" gradientTransform="matrix(1 0 0 -1 0 2279.6099)">
						<stop  offset="0.1089" style="stop-color:#B992B7"/>
						<stop  offset="0.2486" style="stop-color:#B992B7"/>
					</linearGradient>
					<path style="fill:url(#SVGID_00000023282587358395229900000006836686183698608029_);" d="M3039.62,1509.49v-381.9
						c0-11.89,3.96-18.5,15.86-18.5h31.72c11.89,0,15.86,6.61,15.86,18.5v384.55c0,122.9,67.4,199.54,185,199.54
						c117.61,0,210.11-76.65,210.11-199.54v-384.55c0-11.89,3.97-18.5,15.86-18.5h30.39c11.9,0,17.18,6.61,17.18,18.5v610.52
						c0,11.89-5.29,18.5-17.18,18.5h-25.11c-14.53,0-17.18-5.29-18.5-19.82l-2.64-85.9c-37,66.07-111,121.57-223.33,121.57
						C3133.44,1772.47,3039.62,1682.61,3039.62,1509.49z"/>
					
						<linearGradient id="SVGID_00000058566085767148584960000004038223368242705029_" gradientUnits="userSpaceOnUse" x1="3743.9399" y1="846.7599" x2="4400.71" y2="846.7599" gradientTransform="matrix(1 0 0 -1 0 2279.6099)">
						<stop  offset="0.1089" style="stop-color:#B992B7"/>
						<stop  offset="0.2486" style="stop-color:#B992B7"/>
					</linearGradient>
					<path style="fill:url(#SVGID_00000058566085767148584960000004038223368242705029_);" d="M3743.94,1432.85
						c0-192.93,141.4-339.62,329.05-339.62c186.32,0,327.72,146.68,327.72,339.62s-141.4,339.62-327.72,339.62
						C3885.34,1772.47,3743.94,1625.78,3743.94,1432.85z M4072.99,1711.68c151.97,0,265.61-116.29,265.61-278.83
						s-113.65-278.83-265.61-278.83c-153.29,0-266.94,116.29-266.94,278.83S3919.7,1711.68,4072.99,1711.68z"/>
					
						<linearGradient id="SVGID_00000133516893752028286670000011469841847915966597_" gradientUnits="userSpaceOnUse" x1="4503.4849" y1="846.7599" x2="5000.0039" y2="846.7599" gradientTransform="matrix(1 0 0 -1 0 2279.6099)">
						<stop  offset="0.1089" style="stop-color:#B992B7"/>
						<stop  offset="0.2486" style="stop-color:#B992B7"/>
					</linearGradient>
					<path style="fill:url(#SVGID_00000133516893752028286670000011469841847915966597_);" d="M4509.05,1734.14l204.83-307.9
						l-195.58-294.69c-7.93-13.21-3.96-22.46,9.25-22.46h35.68c10.57,0,15.86,3.96,21.15,13.21l167.82,260.33l166.5-260.33
						c5.29-9.25,11.9-13.21,22.47-13.21h34.36c14.53,0,17.18,9.25,9.25,22.46l-194.26,294.69l204.83,307.9
						c9.25,13.22,3.96,22.47-9.25,22.47h-35.68c-10.57,0-15.86-3.96-21.14-13.21l-177.08-273.55l-177.08,273.55
						c-5.29,9.25-11.89,13.21-22.46,13.21h-34.36C4503.76,1756.61,4498.47,1747.36,4509.05,1734.14z"/>
				</g>
			</g>
		</g>
	</g>
	<g>
		
			<radialGradient id="SVGID_00000026882120195200402800000000576032614146187155_" cx="1118.7081" cy="903.5401" r="1672.8383" gradientTransform="matrix(1 0 0 -1 0 2279.6099)" gradientUnits="userSpaceOnUse">
			<stop  offset="0" style="stop-color:#E0F0D7"/>
			<stop  offset="0.8825" style="stop-color:#FAD0F1"/>
		</radialGradient>
		<path style="fill:url(#SVGID_00000026882120195200402800000000576032614146187155_);" d="M2281.72,1140.86
			c0,113.01-16.43,222.19-47.04,325.26c-140.03,471.62-576.75,815.6-1093.82,815.6c-405.44,0-761.49-211.5-963.82-530.18
			C64.93,1574.97,0,1365.49,0,1140.86C0,510.78,510.78,0,1140.86,0S2281.72,510.78,2281.72,1140.86z"/>
		
			<linearGradient id="SVGID_00000050636076141729062900000008242711602546474647_" gradientUnits="userSpaceOnUse" x1="1221.0795" y1="84.828" x2="1188.0363" y2="1356.9896" gradientTransform="matrix(1 0 0 -1 0 2279.6099)">
			<stop  offset="0.2486" style="stop-color:#B992B7"/>
			<stop  offset="0.5642" style="stop-color:#C9A6C8"/>
		</linearGradient>
		<path style="fill:url(#SVGID_00000050636076141729062900000008242711602546474647_);" d="M2234.68,1466.12
			c-140.03,471.62-576.75,815.6-1093.82,815.6c-405.44,0-761.49-211.5-963.82-530.18l21.28-134.47l61.08-50.53l56.1-106.22h54.49
			l45.5-44.95l112.69,157.55l117.63-413.76l51.14-77.37l52.1-135.86l103.9-26.07l118.56,76.53l99.35-36.8l51.83,90.28l53.35,74.58
			l94.39-16.01l159.87,37.26l78.79,67.65l128.94-73l91.36,68.62l128.72,2.16l88.71,88.95l36.96,7.68l89.17,76.49l114.73-3.13
			L2234.68,1466.12z"/>
	</g>
</g>
</svg>
