<?xml version="1.0" encoding="utf-8"?>
<!-- Generator: Adobe Illustrator 17.0.2, SVG Export Plug-In . SVG Version: 6.00 Build 0)  -->
<!DOCTYPE svg PUBLIC "-//W3C//DTD SVG 1.1//EN" "http://www.w3.org/Graphics/SVG/1.1/DTD/svg11.dtd">
<svg version="1.1" id="Layer_1" xmlns="http://www.w3.org/2000/svg" xmlns:xlink="http://www.w3.org/1999/xlink" x="0px" y="0px"
	 width="465.619px" height="146.268px" viewBox="0 0 465.619 146.268" enable-background="new 0 0 465.619 146.268"
	 xml:space="preserve">
<path fill="#FFFFFF" d="M0,0v146.268h465.619V0H0z M463.124,144.002H2.493V2.269h460.631V144.002z"/>
<g>
	<path fill="#FFFFFF" d="M161.328,48.737c-1.14,1.14-2.925,2.033-5.605,2.033c-2.186,0-4.282-0.678-5.697-2.094
		c-1.849-1.849-1.787-4.189-1.787-6.222V29.826h2.772v12.937c0,1.571-0.062,3.11,1.171,4.342c0.831,0.832,2.124,1.294,3.633,1.294
		c1.51,0,2.649-0.524,3.389-1.263c1.386-1.386,1.264-2.957,1.264-6.437V29.826h2.711v10.441
		C163.178,44.086,163.301,46.766,161.328,48.737z"/>
	<path fill="#FFFFFF" d="M182.976,50.37l-9.701-16.355l0.062,16.355h-2.526V29.826h2.74l9.704,16.417l-0.062-16.417h2.523V50.37
		H182.976z"/>
	<path fill="#FFFFFF" d="M194.005,50.37V29.826h2.771V50.37H194.005z"/>
	<path fill="#FFFFFF" d="M212.181,50.37h-3.049l-7.084-20.544h2.864l5.82,17.71l5.977-17.71h2.679L212.181,50.37z"/>
	<path fill="#FFFFFF" d="M224.772,50.37V29.826h11.367v2.279h-8.656v6.468h8.132v2.218h-8.132v7.238h8.901v2.341H224.772z"/>
	<path fill="#FFFFFF" d="M253.956,50.37l-2.372-5.359c-1.417-3.172-2.096-3.45-4.867-3.45h-1.294v8.809h-2.71V29.826h4.558
		c2.742,0,4.867-0.03,6.53,1.633c1.017,1.016,1.603,2.372,1.603,4.096c0,1.417-0.401,2.618-1.263,3.542
		c-0.739,0.801-1.942,1.479-3.296,1.632c0.678,0.031,1.354,0.431,1.756,0.832c0.615,0.617,1.047,1.602,1.601,2.865l2.65,5.944
		H253.956z M251.769,33.091c-1.108-1.109-2.556-1.078-4.22-1.078h-2.126v7.361h0.957c1.969,0,3.972,0.062,5.266-1.232
		c0.646-0.646,1.017-1.601,1.017-2.587C252.662,34.445,252.23,33.553,251.769,33.091z"/>
	<path fill="#FFFFFF" d="M267.435,50.801c-3.636,0-6.068-1.971-6.314-2.218l1.324-1.91c0.369,0.247,2.371,1.756,4.867,1.756
		c2.524,0,4.004-1.509,4.004-3.388c0-2.248-2.516-3.357-4.733-4.435c-2.618-1.263-4.876-2.618-4.876-5.637
		c0-3.265,2.647-5.544,6.435-5.544c3.79,0,5.669,1.879,5.854,2.094l-1.388,1.787c-0.245-0.215-1.878-1.54-4.28-1.54
		c-2.248,0-3.85,1.109-3.85,2.957c0,1.94,1.817,2.659,3.85,3.707c1.817,0.923,5.852,2.33,5.852,6.365
		C274.179,48.183,271.685,50.801,267.435,50.801z"/>
	<path fill="#FFFFFF" d="M280.674,50.37V29.826h2.772V50.37H280.674z"/>
	<path fill="#FFFFFF" d="M297.601,32.105V50.37h-2.772V32.105h-6.038v-2.279h14.815v2.279H297.601z"/>
	<path fill="#FFFFFF" d="M315.567,42.238v8.131h-2.741v-8.131l-6.499-12.413h3.029l5.011,9.667l4.914-9.667h2.786L315.567,42.238z"
		/>
	<path fill="#FFFFFF" d="M345.052,50.77c-5.42,0-9.331-4.405-9.331-10.626c0-6.345,3.881-10.719,9.487-10.719
		c5.482,0,9.301,4.374,9.301,10.565C354.509,46.396,350.659,50.77,345.052,50.77z M345.021,31.766c-3.911,0-6.467,3.296-6.467,8.316
		c0,4.99,2.865,8.316,6.622,8.316c4.28,0,6.499-3.666,6.499-8.501C351.675,35,348.934,31.766,345.021,31.766z"/>
	<path fill="#FFFFFF" d="M363.821,32.105v6.468h7.885v2.218h-7.885v9.579h-2.741V29.826h11.119v2.279H363.821z"/>
	<g>
		<path fill="#FFFFFF" d="M189.873,90.748c0,13.157-10.133,22.687-22.806,22.687c-12.902,0-22.806-9.651-22.806-22.201
			c0-13.146,10.146-22.684,22.806-22.684C179.986,68.549,189.873,78.193,189.873,90.748L189.873,90.748L189.873,90.748z
			 M182.531,90.989c0-11.945-5.676-20.018-15.464-20.018c-10.613,0-15.438,9.768-15.438,20.018c0,11.951,5.672,20.066,15.438,20.066
			C177.698,111.055,182.531,101.264,182.531,90.989L182.531,90.989L182.531,90.989z"/>
		<path fill="#FFFFFF" d="M329.138,90.748c0,13.157-10.137,22.687-22.807,22.687c-12.901,0-22.807-9.651-22.807-22.201
			c0-13.146,10.142-22.684,22.807-22.684C319.239,68.549,329.138,78.193,329.138,90.748L329.138,90.748L329.138,90.748z
			 M321.783,90.989c0-11.945-5.672-20.018-15.452-20.018c-10.622,0-15.445,9.768-15.445,20.018c0,11.951,5.671,20.066,15.445,20.066
			C316.949,111.055,321.783,101.264,321.783,90.989L321.783,90.989L321.783,90.989z"/>
		<path fill="#FFFFFF" d="M346.757,91.11h5.428c8.207,0,9.902-5.041,9.902-10c0-3.714-1.574-6.746-5.43-8.439
			c-2.06-0.848-3.989-0.966-6.64-0.966h-3.261V91.11L346.757,91.11z M356.657,98.26c-2.536-3.635-3.503-4.729-6.64-4.729h-3.261
			v14.501c0,1.213,0.362,1.81,1.81,2.058l4.95,0.965v1.704h-19.543v-1.704l4.459-0.965c1.453-0.369,1.803-0.845,1.803-2.058V74.007
			c0-1.214-0.47-1.824-1.803-2.064l-4.459-0.972v-1.689h19.059c3.988,0,6.761,0.358,9.054,1.209
			c4.701,1.811,7.353,6.295,7.353,10.494c0,5.322-3.975,9.763-10.615,11.338v0.246c1.333,0.598,2.052,1.459,6.761,7.621l6.034,7.843
			c0.84,1.213,1.811,2.058,3.372,2.303l4.109,0.72v1.704h-10.494c-1.212,0-1.818-0.369-2.901-1.829L356.657,98.26L356.657,98.26z"/>
		<path fill="#FFFFFF" d="M271.578,84.254h2.052V98.63h-2.052l-0.849-4.13c-0.35-1.566-1.317-2.178-2.772-2.178h-10.494v15.71
			c0,1.213,0.363,1.81,1.803,2.058l4.958,0.965v1.704h-19.557v-1.704l4.458-0.965c1.456-0.369,1.819-0.845,1.819-2.058V74.007
			c0-1.214-0.486-1.824-1.819-2.064l-4.458-0.972v-1.689h32.945v10.854h-2.046l-1.695-6.128c-0.482-1.706-1.454-2.303-2.899-2.303
			h-13.509v18.192h10.494c1.454,0,2.422-0.568,2.772-2.131L271.578,84.254L271.578,84.254z"/>
		<path fill="#FFFFFF" d="M382.599,112.759v-1.704l4.461-0.965c1.451-0.369,1.815-0.845,1.815-2.058V74.007
			c0-1.214-0.484-1.824-1.815-2.064l-4.461-0.972v-1.689h20.397c5.548,0,9.533,0.716,12.781,2.178
			c8.214,3.759,11.949,11.828,11.949,19.773c0,7.749-2.886,14.973-10.253,18.857c-3.378,1.807-8.082,2.669-14.235,2.669H382.599
			L382.599,112.759z M395.274,71.705v36.681c0,1.58,0.358,1.95,1.93,1.95h5.308c5.065,0,8.808-0.614,11.464-2.547
			c4.469-3.269,6.397-8.921,6.397-16.433c0-7.349-1.929-14.328-7.964-17.842c-2.546-1.451-5.795-1.81-10.864-1.81H395.274
			L395.274,71.705z"/>
		<path fill="#FFFFFF" d="M207.019,111.055v1.704h-15.574v-1.704l3.859-0.843c1.448-0.37,2.538-0.843,3.391-1.951l13.04-16.659
			l-13.04-17.595c-0.853-1.214-1.942-1.824-3.268-2.185l-3.611-0.852v-1.689h19.191v1.689l-4.111,0.734
			c-1.32,0.238-1.199,0.597-0.469,1.567l9.641,13.65h0.246l10.01-13.408c0.727-0.967,0.727-1.451-0.363-1.691l-3.855-0.852v-1.689
			h15.559v1.689l-3.852,0.852c-1.454,0.361-2.545,0.848-3.385,1.937L218.01,89.329l13.863,18.704c0.848,1.213,1.938,1.81,3.27,2.18
			l3.609,0.843v1.704H219.56v-1.704l4.119-0.72c1.312-0.245,1.189-0.614,0.48-1.583l-10.515-14.725h-0.236l-10.739,14.725
			c-0.729,0.969-0.845,1.213,0.482,1.46L207.019,111.055L207.019,111.055z"/>
	</g>
</g>
<path fill="#FFFFFF" d="M91.52,54.474c0,0,0,19.937,0,21.509c-1.519,0-15.645,0-15.645,0l-0.215,0.531
	c-0.254,0.63-0.715,1.213-2.343,1.213c-1.627,0-2.087-0.583-2.342-1.213l-0.214-0.531c0,0-14.093,0-15.612,0
	c0-1.572,0-21.509,0-21.509h-1.7v0.556l-1.192-0.366c-0.175-0.529-0.668-0.914-1.255-0.914c-0.732,0-1.329,0.595-1.329,1.329
	c0,0.734,0.597,1.329,1.329,1.329c0.305,0,0.583-0.107,0.807-0.281l1.64,0.504v1.642l-1.18-0.211
	c-0.203-0.431-0.625-0.74-1.133-0.765c-0.732-0.035-1.356,0.53-1.391,1.263c-0.036,0.733,0.531,1.355,1.263,1.391
	c0.386,0.019,0.738-0.132,0.993-0.383l1.448,0.26v1.679l-1.238-0.055c-0.236-0.367-0.647-0.612-1.116-0.612
	c-0.732,0-1.329,0.595-1.329,1.328c0,0.733,0.597,1.329,1.329,1.329c0.426,0,0.801-0.205,1.044-0.517l1.309,0.058v1.826l-1.28,0.046
	c-0.243-0.317-0.621-0.525-1.051-0.525c-0.732,0-1.328,0.595-1.328,1.328c0,0.733,0.596,1.328,1.328,1.328
	c0.465,0,0.874-0.24,1.11-0.603l1.22-0.044v1.682l-1.414,0.243c-0.241-0.241-0.573-0.39-0.94-0.39c-0.732,0-1.329,0.595-1.329,1.328
	c0,0.735,0.597,1.328,1.329,1.328c0.528,0,0.981-0.311,1.195-0.757l1.158-0.199v1.646l-1.569,0.479
	c-0.225-0.173-0.502-0.281-0.808-0.281c-0.733,0-1.329,0.594-1.329,1.328c0,0.735,0.596,1.329,1.329,1.329
	c0.587,0,1.08-0.383,1.255-0.913l1.122-0.343v1.584l-1.753,0.756c-0.217-0.133-0.475-0.205-0.748-0.195
	c-0.732,0.029-1.304,0.648-1.275,1.381c0.029,0.734,0.65,1.305,1.381,1.275c0.62-0.025,1.119-0.473,1.242-1.053l1.152-0.498v1.561
	c0,0,15.37,0,16.264,0c0.689,1.146,1.855,1.742,3.604,1.742c1.751,0,2.915-0.596,3.605-1.742c0.894,0,16.298,0,16.298,0v-23.21
	H91.52z"/>
<g>
	<ellipse fill="#FFFFFF" cx="62.659" cy="48.631" rx="5.93" ry="1.137"/>
	<path fill="#FFFFFF" d="M70.822,40.15l-3.423,2.405l-0.029,0.244l0.813,0.365c0.161,0.081,0.163,0.21,0.081,0.288l-2.15,1.814
		l-0.205-0.018l-1.522-2.245c-0.104-0.146-0.067-0.291,0.116-0.321l1.022-0.167v-0.258l-2.649-3.745H62.44l-2.649,3.745v0.258
		l1.022,0.167c0.183,0.031,0.222,0.176,0.116,0.321l-1.523,2.245L59.2,45.267l-2.007-1.814c-0.082-0.078-0.081-0.208,0.079-0.288
		l0.814-0.365l-0.029-0.244l-3.565-2.405l-0.289,0.113l2.093,6.396c1.062-0.477,3.503-0.813,6.36-0.827
		c2.857,0.013,5.299,0.35,6.36,0.827l2.094-6.396L70.822,40.15z"/>
</g>
<g>
	<ellipse fill="#FFFFFF" cx="73.293" cy="91.52" rx="5.93" ry="1.137"/>
	<path fill="#FFFFFF" d="M81.456,83.038l-3.423,2.406l-0.029,0.244l0.813,0.365c0.161,0.08,0.163,0.209,0.081,0.287l-2.15,1.815
		l-0.205-0.019l-1.522-2.244c-0.104-0.146-0.067-0.291,0.117-0.322l1.021-0.166v-0.258l-2.65-3.745h-0.435l-2.649,3.745v0.258
		l1.022,0.166c0.183,0.031,0.222,0.176,0.116,0.322l-1.523,2.244l-0.204,0.019l-2.008-1.815c-0.082-0.078-0.08-0.207,0.08-0.287
		l0.814-0.365l-0.031-0.244l-3.564-2.406l-0.289,0.113l2.094,6.396c1.062-0.478,3.503-0.814,6.36-0.827
		c2.857,0.013,5.298,0.35,6.36,0.827l2.094-6.396L81.456,83.038z"/>
</g>
<g>
	<ellipse fill="#FFFFFF" cx="83.9" cy="48.631" rx="5.93" ry="1.137"/>
	<path fill="#FFFFFF" d="M92.064,40.15l-3.423,2.405l-0.029,0.244l0.813,0.365c0.161,0.081,0.163,0.21,0.081,0.288l-2.15,1.814
		l-0.204-0.018l-1.523-2.245c-0.104-0.146-0.067-0.291,0.116-0.321l1.023-0.167v-0.258l-2.65-3.745h-0.437l-2.649,3.745v0.258
		l1.022,0.167c0.184,0.031,0.222,0.176,0.116,0.321l-1.523,2.245l-0.204,0.018l-2.008-1.838c-0.081-0.078-0.081-0.208,0.079-0.288
		l0.816-0.342l-0.031-0.244l-3.565-2.405l-0.288,0.113l2.093,6.396c1.062-0.477,3.503-0.813,6.36-0.827
		c2.858,0.013,5.299,0.35,6.361,0.827l2.093-6.396L92.064,40.15z"/>
</g>
<circle fill="#FFFFFF" cx="73.246" cy="22.934" r="1.216"/>
<circle fill="#FFFFFF" cx="101.639" cy="34.206" r="1.216"/>
<g>
	<path fill="#FFFFFF" d="M59.862,56.505c-0.102,0-0.159,0.014-0.19,0.031c-0.023,0.008-0.026,0.111-0.026,0.221v1.7
		c0,0.393,0.098,0.469,0.31,0.469c0.381,0,0.767-0.42,0.767-1.204C60.722,56.771,60.239,56.505,59.862,56.505z"/>
	<path fill="#FFFFFF" d="M63.478,58.996c0.381,0,0.588-0.368,0.588-1.168c0-0.889-0.318-1.38-0.699-1.38
		c-0.34,0-0.623,0.389-0.623,1.163C62.743,58.412,63.044,58.996,63.478,58.996z"/>
	<path fill="#FFFFFF" d="M72.44,57.824c0-1.784-0.604-3.222-1.91-3.99c-0.818-0.481-1.927-0.638-3.294-0.638l-9.894-0.002v20.067
		h10.773c2.494,0,3.96,0.562,4.088,2.799h0.239L72.44,57.824z M65.141,58.988c0.213-0.019,0.296-0.062,0.323-0.227
		c0.023-0.137,0.048-0.371,0.07-0.774l0.049-0.893c0.031-0.557-0.004-0.606-0.354-0.637v-0.173h1.04l0.774,1.753l0.677-1.753h1.075
		v0.173c-0.336,0.031-0.353,0.049-0.341,0.514l0.044,1.482c0.014,0.491,0.021,0.504,0.341,0.536v0.171h-1.385v-0.171
		c0.331-0.032,0.345-0.045,0.341-0.536l-0.014-1.558h-0.018l-0.854,2.217h-0.239l-0.81-2.062h-0.009l-0.031,0.982
		c-0.014,0.38-0.009,0.592,0.009,0.729c0.018,0.165,0.115,0.205,0.402,0.227v0.171h-1.093V58.988z M67.648,63.336l-0.066-0.032
		c-0.362-0.168-0.774-0.398-0.774-0.871c0-0.5,0.362-0.907,1.058-0.907c0.137,0,0.279,0.018,0.407,0.054
		c0.101,0.026,0.172,0.043,0.229,0.062c0.018,0.172,0.049,0.389,0.098,0.689l-0.195,0.031c-0.098-0.292-0.252-0.606-0.602-0.606
		c-0.226,0-0.385,0.172-0.385,0.385c0,0.221,0.172,0.349,0.455,0.478l0.098,0.044c0.408,0.186,0.757,0.412,0.757,0.929
		c0,0.544-0.438,0.942-1.123,0.942c-0.177,0-0.359-0.035-0.479-0.075c-0.131-0.045-0.225-0.08-0.277-0.107
		c-0.035-0.204-0.094-0.442-0.147-0.739l0.195-0.058c0.092,0.257,0.354,0.748,0.787,0.748c0.23,0,0.407-0.151,0.407-0.438
		C68.09,63.607,67.917,63.461,67.648,63.336z M64.735,61.996c0.08,0.247,0.43,1.12,0.594,1.553c0.137-0.376,0.42-1.222,0.49-1.429
		c0.094-0.271,0.066-0.319-0.133-0.34l-0.133-0.014v-0.173h1.072v0.173c-0.254,0.031-0.314,0.053-0.488,0.456
		c-0.025,0.061-0.565,1.375-0.897,2.278h-0.341c-0.306-0.796-0.721-1.89-0.881-2.306c-0.144-0.38-0.234-0.402-0.447-0.429v-0.173
		h1.43v0.173l-0.15,0.017C64.687,61.801,64.687,61.84,64.735,61.996z M63.455,56.217c0.81,0,1.435,0.593,1.435,1.469
		c0,0.947-0.647,1.539-1.496,1.539c-0.894,0-1.474-0.65-1.474-1.464C61.92,57.044,62.398,56.217,63.455,56.217z M58.535,59.159
		v-0.171c0.323-0.028,0.358-0.058,0.358-0.536v-1.461c0-0.477-0.035-0.509-0.323-0.535v-0.173h1.292
		c0.545,0,0.996,0.107,1.291,0.394c0.209,0.199,0.382,0.526,0.382,0.907c0,1.102-0.837,1.575-1.858,1.575H58.535z M61.479,67.075
		c-0.305,0.026-0.34,0.057-0.34,0.535v1.46c0,0.478,0.035,0.509,0.34,0.536v0.172h-1.433v-0.172
		c0.305-0.027,0.341-0.059,0.341-0.536v-1.46c0-0.478-0.036-0.508-0.341-0.535v-0.173h1.433V67.075z M61.55,64.469h-1.102v-0.172
		c0.195-0.01,0.31-0.071,0.332-0.227c0.018-0.137,0.035-0.38,0.035-0.845v-0.814c0-0.327-0.01-0.385-0.098-0.509
		c-0.066-0.093-0.177-0.123-0.336-0.137v-0.173h0.979l1.473,1.836h0.008v-0.593c0-0.465-0.017-0.708-0.034-0.845
		c-0.022-0.154-0.142-0.212-0.434-0.226v-0.173h1.128v0.173c-0.221,0.009-0.336,0.071-0.357,0.226
		c-0.018,0.137-0.037,0.38-0.037,0.845V64.5h-0.38l-1.637-2.089h-0.009v0.814c0,0.465,0.018,0.708,0.035,0.845
		c0.023,0.155,0.142,0.213,0.434,0.227V64.469z M63.962,69.778h-2.193v-0.172c0.336-0.027,0.371-0.059,0.371-0.536v-1.46
		c0-0.478-0.035-0.508-0.332-0.535v-0.173h1.438v0.173c-0.318,0.026-0.354,0.057-0.354,0.535v1.518c0,0.23,0.009,0.34,0.088,0.38
		c0.072,0.036,0.174,0.04,0.311,0.04c0.142,0,0.332-0.013,0.425-0.128c0.07-0.083,0.146-0.203,0.217-0.438l0.19,0.031
		C64.095,69.181,64.003,69.641,63.962,69.778z M66.431,69.778h-2.194v-0.172c0.337-0.027,0.372-0.059,0.372-0.536v-1.46
		c0-0.478-0.035-0.508-0.332-0.535v-0.173h1.438v0.173c-0.319,0.026-0.354,0.057-0.354,0.535v1.518c0,0.23,0.01,0.34,0.09,0.38
		c0.07,0.036,0.172,0.04,0.309,0.04c0.142,0,0.332-0.013,0.425-0.128c0.071-0.083,0.146-0.203,0.217-0.438l0.19,0.031
		C66.566,69.181,66.472,69.641,66.431,69.778z M69.201,67.075c-0.253,0.031-0.314,0.053-0.487,0.456
		c-0.026,0.062-0.566,1.376-0.898,2.278h-0.341c-0.307-0.796-0.722-1.89-0.881-2.306c-0.147-0.38-0.234-0.402-0.447-0.429v-0.173
		h1.43v0.173l-0.15,0.017c-0.164,0.018-0.164,0.058-0.115,0.213c0.08,0.247,0.43,1.12,0.594,1.553
		c0.137-0.376,0.42-1.221,0.49-1.429c0.093-0.27,0.066-0.319-0.133-0.341l-0.133-0.013v-0.173h1.071V67.075z M70.574,56.456
		c-0.307,0.026-0.341,0.058-0.341,0.535v1.461c0,0.478,0.034,0.508,0.341,0.536v0.171h-1.434v-0.171
		c0.305-0.028,0.34-0.058,0.34-0.536v-1.461c0-0.477-0.035-0.509-0.34-0.535v-0.173h1.434V56.456z"/>
</g>
<g>
	<polygon fill="#FFFFFF" points="85.986,57.278 85.713,58.123 86.279,58.123 86,57.278 	"/>
	<path fill="#FFFFFF" d="M83.51,63.016c0,0.801,0.301,1.386,0.734,1.386c0.381,0,0.589-0.368,0.589-1.169
		c0-0.89-0.317-1.38-0.699-1.38C83.793,61.853,83.51,62.242,83.51,63.016z"/>
	<polygon fill="#FFFFFF" points="84.947,67.897 84.674,68.742 85.24,68.742 84.961,67.897 	"/>
	<path fill="#FFFFFF" d="M79.367,53.196c-1.365,0-2.475,0.157-3.293,0.638c-1.307,0.768-1.91,2.206-1.91,3.99l-0.001,18.237h0.238
		c0.128-2.237,1.595-2.799,4.088-2.799h10.843V53.195L79.367,53.196z M81.7,56.379h0.978l1.473,1.836h0.008v-0.593
		c0-0.465-0.017-0.708-0.034-0.845c-0.023-0.154-0.142-0.212-0.434-0.225v-0.173h1.128v0.173c-0.221,0.008-0.336,0.071-0.358,0.225
		c-0.017,0.137-0.036,0.38-0.036,0.845v1.664h-0.379l-1.638-2.089h-0.009v0.814c0,0.464,0.018,0.708,0.035,0.845
		c0.023,0.155,0.142,0.212,0.434,0.227v0.172h-1.101v-0.172c0.194-0.01,0.309-0.071,0.33-0.227c0.019-0.137,0.036-0.381,0.036-0.845
		v-0.814c0-0.327-0.01-0.385-0.098-0.508c-0.066-0.093-0.178-0.124-0.335-0.137V56.379z M85.656,63.092
		c0,0.947-0.646,1.539-1.496,1.539c-0.893,0-1.473-0.65-1.473-1.464c0-0.717,0.477-1.544,1.534-1.544
		C85.032,61.623,85.656,62.216,85.656,63.092z M82.318,64.393v0.172h-1.434v-0.172c0.305-0.027,0.34-0.059,0.34-0.536v-1.46
		c0-0.478-0.035-0.509-0.34-0.535v-0.173h1.434v0.173c-0.307,0.026-0.341,0.057-0.341,0.535v1.46
		C81.978,64.335,82.012,64.366,82.318,64.393z M80.04,59.084c0.306-0.027,0.341-0.058,0.341-0.536v-1.461
		c0-0.477-0.035-0.509-0.341-0.535v-0.173h1.433v0.173c-0.305,0.026-0.34,0.057-0.34,0.535v1.461c0,0.478,0.035,0.509,0.34,0.536
		v0.172H80.04V59.084z M80.066,64.393v0.172H78.52v-0.172c0.354-0.027,0.389-0.059,0.389-0.536v-1.938h-0.075
		c-0.296,0-0.417,0.054-0.487,0.134c-0.053,0.065-0.105,0.181-0.164,0.429h-0.186c0.019-0.372,0.045-0.677,0.053-0.902h0.138
		c0.067,0.101,0.11,0.11,0.229,0.11h1.766c0.115,0,0.137-0.026,0.209-0.11h0.137c0.004,0.186,0.026,0.562,0.048,0.889l-0.194,0.014
		c-0.066-0.265-0.114-0.381-0.181-0.456c-0.075-0.08-0.222-0.106-0.434-0.106H79.66v1.938C79.66,64.335,79.696,64.366,80.066,64.393
		z M77.133,59.256h-1.092v-0.172c0.212-0.018,0.296-0.062,0.322-0.227c0.022-0.137,0.049-0.372,0.07-0.774l0.049-0.893
		c0.031-0.557-0.004-0.606-0.354-0.637v-0.173h1.039l0.775,1.753l0.678-1.753h1.075v0.173c-0.337,0.031-0.355,0.048-0.342,0.513
		l0.044,1.482c0.014,0.491,0.022,0.504,0.341,0.536v0.172h-1.384v-0.172c0.33-0.032,0.345-0.045,0.34-0.536l-0.014-1.558h-0.018
		l-0.854,2.217h-0.239l-0.81-2.062h-0.009l-0.03,0.983c-0.015,0.38-0.01,0.592,0.008,0.729c0.018,0.164,0.115,0.204,0.402,0.227
		V59.256z M81.01,69.875h-1.385v-0.172c0.332-0.031,0.346-0.045,0.34-0.536l-0.012-1.558h-0.018l-0.855,2.217h-0.237l-0.81-2.062
		h-0.01l-0.03,0.982c-0.014,0.38-0.009,0.592,0.009,0.729c0.018,0.164,0.113,0.204,0.402,0.227v0.172h-1.094v-0.172
		c0.213-0.019,0.297-0.062,0.324-0.227c0.021-0.137,0.048-0.372,0.069-0.774l0.05-0.894c0.031-0.558-0.005-0.606-0.354-0.637v-0.173
		h1.04l0.774,1.752l0.677-1.752h1.076v0.173c-0.336,0.031-0.353,0.049-0.342,0.513l0.045,1.482c0.013,0.491,0.021,0.504,0.34,0.536
		V69.875z M83.527,69.875h-2.252v-0.172c0.34-0.027,0.375-0.059,0.375-0.536v-1.461c0-0.478-0.035-0.508-0.33-0.535v-0.173h2.096
		c0.005,0.076,0.027,0.399,0.049,0.73l-0.194,0.014c-0.045-0.217-0.093-0.34-0.164-0.412c-0.069-0.075-0.216-0.102-0.45-0.102
		h-0.075c-0.169,0-0.177,0-0.177,0.155v0.854h0.221c0.38,0,0.393-0.026,0.438-0.363h0.195v1.044h-0.195
		c-0.045-0.389-0.058-0.415-0.438-0.415h-0.221v0.721c0,0.231,0.008,0.34,0.088,0.38c0.071,0.036,0.172,0.04,0.31,0.04
		c0.177,0,0.372-0.026,0.469-0.132c0.075-0.08,0.15-0.243,0.218-0.456l0.193,0.031C83.66,69.304,83.568,69.755,83.527,69.875z
		 M86.625,69.875h-1.39v-0.172l0.134-0.019c0.162-0.022,0.171-0.066,0.114-0.226l-0.159-0.451h-0.726l-0.134,0.425
		c-0.057,0.19-0.057,0.234,0.147,0.256l0.129,0.014v0.172h-1.031v-0.172c0.226-0.031,0.292-0.05,0.438-0.421l0.886-2.287
		l0.306-0.062l0.301,0.836c0.19,0.527,0.379,1.049,0.547,1.5c0.143,0.384,0.223,0.406,0.439,0.434V69.875z M87.664,59.256h-1.391
		v-0.172l0.135-0.018c0.162-0.022,0.171-0.067,0.113-0.226l-0.158-0.451h-0.727l-0.133,0.425c-0.057,0.191-0.057,0.234,0.146,0.256
		l0.128,0.014v0.172h-1.029v-0.172c0.225-0.032,0.293-0.05,0.439-0.421l0.885-2.287l0.305-0.062l0.3,0.836
		c0.191,0.526,0.382,1.049,0.549,1.5c0.143,0.384,0.223,0.407,0.44,0.434V59.256z"/>
</g>
<circle fill="#FFFFFF" cx="68.04" cy="106.303" r="1.216"/>
<circle fill="#FFFFFF" cx="80.015" cy="108.266" r="1.216"/>
<path fill="#FFFFFF" d="M35.311,41.913L35.311,41.913L35.311,41.913z"/>
<path fill="#FFFFFF" d="M82.646,28.586L82.646,28.586L82.646,28.586z"/>
<path fill="#FFFFFF" d="M84.926,20.573L84.926,20.573L84.926,20.573z"/>
<path fill="#FFFFFF" d="M103.98,44.035L103.98,44.035L103.98,44.035z"/>
<path fill="#FFFFFF" d="M117.328,70.429L117.328,70.429L117.328,70.429z"/>
<path fill="#FFFFFF" d="M113.16,82.436L113.16,82.436L113.16,82.436z"/>
<path fill="#FFFFFF" d="M40.732,83.395c0.416,0.002,1.593,0.115,2.59,1.533c0.41,0.582,0.701,1.27,0.699,1.989
	c-0.002,1.19-0.582,1.879-1.979,2.861l-3.706,2.615l-1.008-1.435l4.15-2.928c0.384-0.27,0.896-0.713,0.897-1.282
	c0-0.313-0.042-0.568-0.326-0.973c-0.44-0.626-0.901-0.679-1.193-0.68c-0.44-0.001-0.856,0.265-1.749,0.893l-3.596,2.345
	l-0.98-1.394l3.818-2.499C39.358,83.732,40.009,83.391,40.732,83.395z"/>
<path fill="#FFFFFF" d="M34.133,80.006l5.073-1.99l0.547,1.422l-7.658,2.969l-0.542-1.483l3.962-5.046l-5.109,1.785l-0.545-1.495
	l7.728-2.702l0.513,1.402L34.133,80.006z"/>
<path fill="#FFFFFF" d="M28.629,69.819l8.135-1.238l0.264,1.732l-8.136,1.237L28.629,69.819z"/>
<path fill="#FFFFFF" d="M36.473,63.18l-8.342,2.5l0.074-1.764l6.258-1.686l-6.092-2.245l0.072-1.714l8.101,3.207L36.473,63.18z"/>
<path fill="#FFFFFF" d="M29.316,53.817l1.364-4.794l1.353,0.385l-0.891,3.133l1.839,0.524l0.837-2.942l1.329,0.377l-0.838,2.943
	l2.017,0.574l0.918-3.228l1.377,0.391l-1.391,4.889L29.316,53.817z"/>
<path fill="#FFFFFF" d="M41.882,44.586l-2.438-0.215c-1.154-0.107-1.266,0.169-1.591,0.752l-0.097,0.171l2.893,1.538l-0.859,1.522
	l-7.235-3.96l1.186-2.083c0.535-0.959,1.105-1.979,2.553-1.979c0.909,0,2.174,0.764,2.174,2.138c0,0.244-0.059,0.501-0.161,0.771
	c0.326-0.469,0.915-0.539,1.45-0.533c0.298,0.002,0.589,0.047,0.83,0.067l2.196,0.193L41.882,44.586z M35.807,42.095
	c-0.419,0.118-0.637,0.442-0.95,1.002l-0.271,0.466l1.996,1.076l0.336-0.604c0.283-0.506,0.345-0.796,0.245-1.148
	c-0.076-0.269-0.329-0.551-0.576-0.689C36.297,42.036,36.009,42.037,35.807,42.095z"/>
<path fill="#FFFFFF" d="M45.526,28.384l1.399-1.054l4.952,6.571l-1.398,1.055L45.526,28.384z"/>
<path fill="#FFFFFF" d="M54.761,24.304l3.127,6.064l-1.557,0.803l-3.127-6.064l-2.006,1.035l-0.645-1.25l5.56-2.867l0.644,1.25
	L54.761,24.304z"/>
<path fill="#FFFFFF" d="M64.392,24.744l0.793,3.184l-1.627,0.406l-0.794-3.185l-3.71-4.174l1.724-0.43l2.454,2.871l0.825-3.694
	l1.653-0.405L64.392,24.744z"/>
<path fill="#FFFFFF" d="M94.178,27.7l2.598,1.546l-0.707,1.188l-2.597-1.546l-1.806,3.031l-1.484-0.883l4.211-7.071l4.218,2.512
	l-0.719,1.208l-2.734-1.628L94.178,27.7z"/>
<path fill="#FFFFFF" d="M108.967,54.435l2.25-2.476l-3.267-0.773l-0.538-1.719l4.857,1.27l3.046-3.565l0.564,1.801l-2.09,2.283
	l3.035,0.731l0.525,1.684l-4.516-1.209l-3.307,3.764L108.967,54.435L108.967,54.435z"/>
<path fill="#FFFFFF" d="M116.839,60.3l-1.909,0.154l0.203,3.04l-1.379,0.092l-0.203-3.016l-3.519,0.237l-0.119-1.653l8.215-0.672
	l0.328,4.948l-1.404,0.094L116.839,60.3L116.839,60.3z"/>
<path fill="#FFFFFF" d="M122.622,64.337c0.221-27.146-21.724-49.411-48.917-49.631c-12.707-0.103-24.813,4.611-34.088,13.273
	c-9.967,9.31-15.518,21.939-15.628,35.56c-0.132,16.242,7.747,31.446,21.082,40.76c1.266,5.275,6.028,9.213,11.708,9.213
	c1.625,0,3.199-0.317,4.684-0.94c1.581,0.501,3.202,0.925,4.819,1.264c-0.525,1.445-1.27,2.807-1.995,4.04l1.181,1.18
	c0.282-0.188,0.613-0.279,0.946-0.281c0.903,0,1.768,0.618,1.761,1.732c0,0.906-0.611,1.756-1.881,1.754
	c-0.688,0-1.58-0.363-2.061-1.395c0,0-0.32,1.004-0.32,2.213c0,3.66,3.979,7.69,9.302,9.377c5.354-1.674,9.316-5.717,9.316-9.377
	c0-1.209-0.32-2.213-0.32-2.213c-0.48,1.031-1.373,1.395-2.062,1.395c-1.269,0.002-1.88-0.848-1.88-1.754
	c-0.007-1.114,0.857-1.732,1.76-1.732c0.332,0.002,0.664,0.094,0.947,0.281l1.084-1.078l0.027-0.016l0.045-0.057
	c0.006,0.004,0.012,0.004,0.016,0.008l0.002-0.029l0.006-0.008l-0.004-0.01v-0.002c-0.533-1.275-0.922-2.439-1.195-3.549
	c8.83-1.21,16.283-4.959,22.217-11.195l-0.01-0.012C115.408,93.799,122.496,79.716,122.622,64.337z M56.778,111.856
	c-5.682,0-10.303-4.639-10.303-10.34c0-1.783,0.451-3.461,1.245-4.926c0.527,0.479,1.09,0.976,1.675,1.478
	c-0.502,1.06-0.791,2.237-0.791,3.483c0,3.096,1.561,5.652,4.512,7.393c1.712,1.011,3.655,1.92,5.713,2.709
	C58.159,111.788,57.474,111.856,56.778,111.856z M73.305,96.758c-1.928,0-3.826-0.175-5.692-0.502
	c-2.011-4.096-6.252-6.738-10.834-6.738c-1.174,0-2.307,0.176-3.381,0.489c-8.083-6.193-12.896-15.87-12.896-26.069
	c0-18.096,14.716-32.819,32.803-32.819c18.088,0,32.803,14.723,32.803,32.819C106.108,82.036,91.393,96.758,73.305,96.758z
	 M80.305,97.703c-0.85,1.37-1.371,3.151-1.551,4.954c-3.004-0.787-5.735-1.826-8.131-2.912c0.332-0.693,1.109-1.336,2.434-1.336
	c0.084,0,0.165,0.006,0.248,0.006C75.702,98.415,78.043,98.169,80.305,97.703z M69.814,98.242c-0.271,0.239-0.498,0.509-0.683,0.799
	c-1.054-0.446-3.085-1.396-3.744-1.792C66.429,97.585,68.758,98.137,69.814,98.242z M56.778,91.174c3.451,0,6.683,1.771,8.578,4.61
	c-1.666-0.415-3.303-0.959-4.897-1.639l-0.005,0.01l-0.047-0.026c-1.111-0.525-2.303-0.791-3.539-0.791
	c-2.749,0-5.182,1.346-6.685,3.404c-0.629-0.35-1.257-0.717-1.875-1.102C50.17,92.946,53.271,91.174,56.778,91.174z M79.884,117.249
	c-1.891,0-3.294,1.474-3.294,3.295c0,2.124,1.486,3.402,3.402,3.402c0.238,0,0.471-0.027,0.695-0.074
	c-0.571,2.648-3.701,5.516-7.473,6.799c-3.706-1.283-6.888-4.15-7.458-6.799c0.225,0.047,0.457,0.074,0.695,0.074
	c1.915,0,3.401-1.278,3.401-3.402c0-1.821-1.402-3.295-3.294-3.295c0.477-0.877,1.018-1.957,1.418-3.09
	c2.226,0.383,4.417,0.592,6.458,0.592c1.646,0,3.248-0.086,4.812-0.24c0.211,0.806,0.719,2.35,0.854,2.752
	C80.033,117.254,79.963,117.249,79.884,117.249z M74.436,113.093c-6.567,0-14.766-2.233-20.399-5.556
	c-1.682-0.992-3.688-2.837-3.688-5.986c0-0.818,0.157-1.6,0.43-2.322c2.128,1.752,4.309,3.379,5.686,4.135
	c0.324,0.178,0.512,0.265,0.889,0.265c0.904,0,1.639-0.736,1.639-1.645c0-0.694-0.377-1.257-1-1.528
	c-1.181-0.518-3.629-1.531-6.283-2.896c1.193-1.556,3.058-2.562,5.158-2.562c0.965,0,1.895,0.207,2.763,0.616l1.793,1.046
	c5.7,3.482,20.27,12.377,37.925,7.757C92.68,110.24,84.499,113.093,74.436,113.093z M102.024,101.853
	c-7.891,2.782-15.26,2.604-21.562,1.215c0.201-2.698,1.206-5.688,2.869-6.139c14.175-4.298,24.522-17.46,24.522-32.991
	c0-19.01-15.499-34.476-34.548-34.476c-19.05,0-34.549,15.466-34.549,34.476c0,10.383,4.757,20.262,12.801,26.781
	c-1.885,0.907-3.493,2.291-4.678,3.988c-0.566-0.394-1.112-0.801-1.621-1.219l-0.322,0.323c0.35,0.423,0.87,0.966,1.501,1.577
	c-1.08,1.794-1.708,3.887-1.708,6.127c0,0.154,0.018,0.304,0.023,0.456c-12.06-9.065-19.142-23.271-19.019-38.42
	c0.107-13.179,5.472-25.393,15.107-34.392c8.942-8.352,20.609-12.896,32.85-12.797c26.23,0.212,47.398,21.728,47.186,47.962
	C120.756,79.222,113.887,92.86,102.024,101.853z"/>
<path fill="#FFFFFF" d="M47.021,37.218c0,0.705-0.308,1.449-0.924,2.122c-1.183,1.293-2.444,1.411-2.574,1.408l-0.358-1.364
	c0.198-0.053,1.125-0.242,1.782-0.962c0.297-0.325,0.451-0.671,0.451-0.977c0-0.325-0.214-0.889-0.884-0.889
	c-0.715,0-1.911,1.036-3.137,1.036c-0.471,0-0.994-0.066-1.539-0.566c-0.526-0.481-0.77-1.096-0.77-1.72
	c0-0.682,0.312-1.399,0.89-2.032c1.099-1.201,2.308-1.299,2.413-1.303l0.295,1.339c-0.139,0.024-1.038,0.221-1.596,0.831
	c-0.287,0.313-0.439,0.654-0.439,0.953c0,0.324,0.206,0.721,0.741,0.729c0.588,0.007,2.068-1.075,3.271-1.075
	c0.558,0,0.964,0.099,1.528,0.616C46.738,35.881,47.021,36.532,47.021,37.218z"/>
<path fill="#FFFFFF" d="M84.93,28.944c-2.1,0-4.004-1.599-4.004-4.003c0-2.147,1.439-4.638,4.053-4.638
	c2.127,0,4.096,1.503,4.096,3.921C89.074,26.044,87.846,28.944,84.93,28.944z M87.32,24.202c0-0.568-0.129-1.163-0.474-1.624
	c-0.356-0.479-0.942-0.814-1.638-0.814c-1.475,0-2.555,1.83-2.555,3.34c0,1.402,0.947,2.355,2.219,2.355
	C86.541,27.46,87.32,25.292,87.32,24.202z"/>
<path fill="#FFFFFF" d="M107.758,46.526c-2.505,0-3.885-2.413-3.885-4.032c0-2.455,2.642-4.331,4.706-4.331
	c2.25,0,3.901,2.14,3.901,4.079C112.481,44.446,110.178,46.526,107.758,46.526z M107.465,44.857c1.445,0,3.449-1.25,3.449-2.933
	c0-1.159-0.9-2.063-2.055-2.063c-1.352,0-3.413,1.202-3.413,2.899C105.446,43.665,106.138,44.857,107.465,44.857z"/>
<path fill="#FFFFFF" d="M109.377,70.768c0-2.032,1.376-4.029,4.111-4.029c2.3,0,4.523,1.418,4.523,3.964
	c0,2.091-1.34,4.101-4.057,4.101C111.631,74.804,109.377,73.336,109.377,70.768z M114.045,73.046c1.459,0,2.528-0.893,2.528-2.203
	c0-1.564-1.812-2.36-3.209-2.36c-1.79,0-2.517,1.164-2.517,2.258C110.848,72.454,112.947,73.046,114.045,73.046z"/>
<path fill="#FFFFFF" d="M106.247,80.469l2.447,0.01c1.16,0.01,1.249-0.274,1.524-0.881l0.081-0.18l-2.944-1.367l0.706-1.562
	l7.449,3.438l-0.955,2.144c-0.653,1.442-1.212,2.17-2.577,2.17c-0.877,0-2.164-0.729-2.154-2.07c0.002-0.206,0.03-0.427,0.097-0.662
	c-0.438,0.761-1.541,0.655-2.231,0.655l-2.204-0.01L106.247,80.469z M111.02,81.385c0,0.629,0.528,1.129,1.116,1.129
	c0.526,0,0.855-0.289,1.163-0.973l0.259-0.615l-2.034-0.955l-0.339,0.759C111.072,80.979,111.02,81.198,111.02,81.385z"/>
<path fill="#FFFFFF" d="M101.238,89.569c0-1.684,0.78-2.6,1.768-3.816l1.068-1.31l6.383,5.194l-1.434,1.76
	c-0.809,0.994-1.762,2.218-3.594,2.218c-1.042,0-1.957-0.483-2.605-1.011C102.014,91.945,101.238,90.827,101.238,89.569z
	 M105.622,91.983c0.869,0,1.372-0.261,2.37-1.487l0.312-0.383l-4.24-3.45l-0.521,0.641c-0.51,0.629-0.775,1.246-0.775,1.842
	c0,0.791,0.392,1.488,1.193,2.143C104.539,91.756,105.07,91.983,105.622,91.983z"/>
</svg>
