<?xml version="1.0" encoding="utf-8"?>
<!-- Generator: Adobe Illustrator 17.0.2, SVG Export Plug-In . SVG Version: 6.00 Build 0)  -->
<!DOCTYPE svg PUBLIC "-//W3C//DTD SVG 1.1//EN" "http://www.w3.org/Graphics/SVG/1.1/DTD/svg11.dtd">
<svg version="1.1" id="Layer_1" xmlns="http://www.w3.org/2000/svg" xmlns:xlink="http://www.w3.org/1999/xlink" x="0px" y="0px"
	 width="287.989px" height="287.574px" viewBox="0 0 287.989 287.574" enable-background="new 0 0 287.989 287.574"
	 xml:space="preserve">
<path fill="#FFFFFF" d="M0,0v287.574h287.989V0H0z M285.727,285.518H2.26V2.055h283.467V285.518z"/>
<g>
	<g>
		<path fill="#FFFFFF" d="M64.362,237.664c0,10.878-8.397,18.776-18.887,18.776c-10.695,0-18.891-7.987-18.891-18.388
			c0-10.886,8.395-18.784,18.891-18.784C56.169,219.269,64.362,227.266,64.362,237.664L64.362,237.664L64.362,237.664z
			 M58.362,237.86c0-9.892-4.797-16.793-12.887-16.793c-8.795,0-12.896,8.288-12.896,16.793c0,9.886,4.799,16.782,12.896,16.782
			C54.269,254.643,58.362,246.356,58.362,237.86L58.362,237.86L58.362,237.86z"/>
		<path fill="#FFFFFF" d="M179.69,237.664c0,10.878-8.395,18.776-18.887,18.776c-10.695,0-18.892-7.987-18.892-18.388
			c0-10.886,8.398-18.784,18.892-18.784C171.497,219.269,179.69,227.266,179.69,237.664L179.69,237.664L179.69,237.664z
			 M173.696,237.86c0-9.892-4.801-16.793-12.893-16.793c-8.795,0-12.891,8.288-12.891,16.793c0,9.886,4.797,16.782,12.891,16.782
			C169.596,254.643,173.696,246.356,173.696,237.86L173.696,237.86L173.696,237.86z"/>
		<path fill="#FFFFFF" d="M194.28,238.053h4.498c6.797,0,8.297-4.289,8.297-8.394c0-3.098-1.4-5.997-4.598-7.392
			c-1.699-0.702-3.299-0.702-5.498-0.702h-2.699V238.053L194.28,238.053z M202.577,243.846c-2.1-2.997-2.9-4.091-5.496-4.091h-2.801
			v12.192c0,1,0.4,1.491,1.502,1.695l4.096,0.898v1.306h-16.09v-1.306l3.699-0.898c1.096-0.295,1.496-0.695,1.496-1.695v-28.183
			c0-1.002-0.4-1.398-1.496-1.696l-3.699-0.9v-1.304h15.689c3.301,0,5.598,0.304,7.496,0.998c3.898,1.504,6.096,5.207,6.096,8.695
			c0,4.403-3.297,8.106-8.795,9.391v0.2c1.102,0.51,1.699,1.205,5.598,6.309l4.896,6.49c0.699,1,1.6,1.594,2.699,1.799l3.598,0.795
			v1.306h-8.594c-1,0-1.5-0.306-2.398-1.509L202.577,243.846L202.577,243.846z"/>
		<path fill="#FFFFFF" d="M132.118,232.157h1.5v11.995h-1.5l-0.9-3.596c-0.301-1.305-1.1-1.801-2.297-1.801h-8.697v13.191
			c0,1,0.4,1.491,1.5,1.695l4.098,0.898v1.306h-16.088v-1.306l3.697-0.898c1.1-0.295,1.5-0.695,1.5-1.695v-28.183
			c0-1.002-0.4-1.398-1.5-1.696l-3.697-0.9v-1.304h27.182v9.004h-1.5l-1.697-5.404c-0.4-1.396-1-1.898-2.199-1.898h-11.295v15.488
			h8.697c1.197,0,1.896-0.492,2.297-1.799L132.118,232.157L132.118,232.157z"/>
		<path fill="#FFFFFF" d="M223.961,255.847v-1.306l3.697-0.898c1.102-0.295,1.5-0.695,1.5-1.695v-28.183
			c0-1.002-0.398-1.398-1.5-1.696l-3.697-0.9v-1.304h16.891c4.596,0,7.895,0.601,10.594,1.8c6.795,3.101,9.895,9.793,9.895,16.389
			c0,6.404-2.4,12.393-8.496,15.59c-2.797,1.508-6.695,2.204-11.791,2.204H223.961L223.961,255.847z M234.456,221.565v30.975
			c0,1.306,0.299,1.612,1.6,1.612h4.396c4.197,0,7.295-0.611,9.494-2.205c3.697-2.695,5.397-7.593,5.397-13.792
			c0-6.096-1.699-12.086-6.695-14.986c-2.098-1.203-4.797-1.604-8.996-1.604H234.456L234.456,221.565z"/>
		<path fill="#FFFFFF" d="M78.454,254.541v1.306H65.763v-1.306l3.193-0.795c1.205-0.308,2-0.697,2.799-1.596l10.996-13.792
			l-10.996-14.594c-0.697-1.002-1.594-1.497-2.697-1.799l-3-0.798v-1.304h15.791v1.304l-3.395,0.696
			c-1.203,0.204-0.902,0.7-0.305,1.502l8.096,11.593h0.199l8.297-11.593c0.6-0.802,0.801-1.099-0.299-1.4l-3.199-0.798v-1.304
			h12.693v1.304l-3.199,0.798c-1.197,0.302-1.998,0.697-2.799,1.597l-10.393,13.101l11.592,15.284c0.703,1,1.6,1.491,2.699,1.799
			l3,0.795v1.306H89.046v-1.306l3.396-0.695c1.201-0.203,1-0.593,0.4-1.408l-8.795-12.39h-0.199l-8.893,12.306
			c-0.602,0.797-0.801,1.085,0.297,1.393L78.454,254.541L78.454,254.541z"/>
	</g>
	<path fill="#FFFFFF" d="M40.598,202.933c-0.994,0.993-2.485,1.657-4.564,1.657c-1.814,0-3.494-0.571-4.631-1.709
		c-1.552-1.552-1.481-3.532-1.481-5.648v-10.008h2.041v10.751c0,1.36-0.041,2.686,1.009,3.736c0.729,0.727,1.849,1.121,3.14,1.121
		c1.262,0,2.273-0.435,2.905-1.066c1.17-1.169,1.096-2.443,1.096-5.523v-9.02h2.01v8.489
		C42.121,198.94,42.252,201.278,40.598,202.933z"/>
	<path fill="#FFFFFF" d="M58.708,204.269l-8.211-13.972l0.051,13.972h-1.875v-17.045h2.093l8.239,14.05l-0.051-14.05h1.875v17.045
		H58.708z"/>
	<path fill="#FFFFFF" d="M67.936,204.268v-17.043h2.051v17.043H67.936z"/>
	<path fill="#FFFFFF" d="M82.737,204.268H80.39l-5.877-17.043h2.137l4.973,15.046l5.12-15.046h1.984L82.737,204.268z"/>
	<path fill="#FFFFFF" d="M93.365,204.268v-17.043h9.265v1.699h-7.256v5.625h6.812v1.657h-6.812v6.311h7.46v1.751H93.365z"/>
	<path fill="#FFFFFF" d="M115.791,189.79c-0.977-0.977-2.245-0.933-3.634-0.933h-1.888v6.364h0.677c1.721,0,3.574,0.09,4.743-1.079
		c0.565-0.565,0.881-1.357,0.881-2.222C116.569,190.962,116.193,190.192,115.791,189.79z M117.652,204.268l-1.958-4.418
		c-1.213-2.717-1.766-2.995-4.237-2.995h-1.188v7.413h-2.009v-17.043h3.676c2.274,0,3.989-0.016,5.331,1.326
		c0.853,0.853,1.329,1.986,1.329,3.408c0,1.184-0.344,2.169-1.058,2.928c-0.615,0.653-1.629,1.227-2.734,1.345
		c0.601,0.035,1.096,0.357,1.418,0.681c0.463,0.463,0.802,1.166,1.3,2.28l2.264,5.075H117.652z"/>
	<path fill="#FFFFFF" d="M139.695,204.268v-17.043h2.051v17.043H139.695z"/>
	<path fill="#FFFFFF" d="M153.449,188.924v15.344h-2.05v-15.344h-5.066v-1.699h12.166v1.699H153.449z"/>
	<path fill="#FFFFFF" d="M168.308,197.531v6.736h-2.024v-6.736l-5.41-10.307h2.344l4.2,7.992l4.079-7.993l2.223,0.001
		L168.308,197.531z"/>
	<path fill="#FFFFFF" d="M192.836,188.644c-3.34,0-5.509,2.82-5.509,7.07c0,4.235,2.415,7.119,5.618,7.119
		c3.562,0,5.544-3.03,5.544-7.253C198.49,191.422,196.149,188.644,192.836,188.644z M192.843,204.59
		c-4.41,0-7.637-3.643-7.637-8.767c0-5.264,3.191-8.921,7.794-8.921c4.462,0,7.61,3.618,7.61,8.764
		C200.611,200.942,197.456,204.59,192.843,204.59z"/>
	<path fill="#FFFFFF" d="M208.251,188.924v5.625h6.589v1.657h-6.589v8.062h-2.035v-17.043h9.052v1.699H208.251z"/>
	<path fill="#FFFFFF" d="M123.918,191.383c0-2.619,2.107-4.483,5.186-4.483c3.116,0,4.61,1.609,4.764,1.775l-1,1.211
		c-0.382-0.295-1.746-1.297-3.629-1.297c-2.175,0-3.379,1.137-3.379,2.679c0,0.747,0.306,1.284,0.799,1.725
		c0.584,0.525,1.437,0.912,2.355,1.335c1.142,0.525,2.709,1.116,3.757,2.205c0.727,0.752,1.275,1.732,1.275,3.075
		c0,2.835-1.967,4.993-5.505,4.993c-3.014,0-4.917-1.66-5.096-1.826l0.939-1.383c0.484,0.359,2.376,1.479,4.107,1.479
		c2.564,0,3.523-1.403,3.523-3.097c0-0.788-0.358-1.42-0.888-1.93c-0.796-0.766-1.999-1.278-3.151-1.805
		c-1.146-0.523-2.249-1.071-3.029-1.893C124.432,193.606,123.918,192.723,123.918,191.383z"/>
</g>
<path fill="#FFFFFF" d="M224.635,68.145c0,0,0,23.911,0,25.473c-1.518,0-18.45,0-18.45,0l-0.211,0.521
	c-0.321,0.795-0.896,1.53-2.911,1.53c-2.013,0-2.588-0.735-2.91-1.53l-0.21-0.521c0,0-16.902,0-18.421,0c0-1.562,0-25.473,0-25.473
	h-1.666v0.776l-1.599-0.491c-0.185-0.629-0.76-1.091-1.448-1.091c-0.837,0-1.518,0.68-1.518,1.517c0,0.838,0.681,1.518,1.518,1.518
	c0.366,0,0.697-0.135,0.959-0.351l2.088,0.641v2.048l-1.569-0.281c-0.231-0.541-0.768-0.921-1.395-0.921
	c-0.837,0-1.518,0.679-1.518,1.518c0,0.838,0.681,1.517,1.518,1.517c0.433,0,0.821-0.184,1.098-0.474l1.866,0.335v2.088l-1.64-0.072
	c-0.265-0.442-0.744-0.741-1.297-0.741c-0.836,0-1.518,0.68-1.518,1.517c0,0.838,0.682,1.518,1.518,1.518
	c0.506,0,0.95-0.25,1.227-0.63l1.71,0.076v2.268l-1.676,0.06c-0.275-0.385-0.724-0.639-1.232-0.639c-0.837,0-1.518,0.68-1.518,1.517
	c0,0.838,0.681,1.518,1.518,1.518c0.548,0,1.025-0.294,1.291-0.73l1.617-0.058v2.091l-1.833,0.315
	c-0.276-0.295-0.667-0.482-1.104-0.482c-0.836,0-1.518,0.68-1.518,1.518c0,0.838,0.682,1.517,1.518,1.517
	c0.622,0,1.156-0.375,1.391-0.912l1.546-0.266v2.052l-2.004,0.612c-0.262-0.216-0.594-0.352-0.96-0.352
	c-0.837,0-1.518,0.679-1.518,1.518c0,0.838,0.681,1.517,1.518,1.517c0.689,0,1.264-0.461,1.449-1.09l1.515-0.463v1.985l-2.214,0.955
	c-0.239-0.158-0.525-0.251-0.833-0.251c-0.837,0-1.518,0.68-1.518,1.517c0,0.838,0.681,1.518,1.518,1.518
	c0.746,0,1.364-0.542,1.49-1.253l1.557-0.672v1.813c0,0,18.177,0,19.061,0c0.774,1.351,2.113,2.051,4.146,2.051
	s3.373-0.7,4.148-2.051c0.883,0,19.09,0,19.09,0V68.145H224.635z"/>
<g>
	<ellipse fill="#FFFFFF" cx="190.524" cy="60.988" rx="6.976" ry="1.338"/>
	<path fill="#FFFFFF" d="M200.127,51.293l-4.027,2.83l-0.034,0.287l0.957,0.43c0.189,0.095,0.191,0.247,0.095,0.339l-2.529,2.135
		l-0.24-0.021l-1.792-2.641c-0.123-0.171-0.079-0.342,0.138-0.378l1.202-0.196v-0.304l-3.117-4.405h-0.514l-3.117,4.405v0.304
		l1.203,0.196c0.216,0.036,0.261,0.207,0.137,0.378l-1.792,2.641l-0.24,0.021l-2.362-2.135c-0.097-0.092-0.095-0.244,0.094-0.339
		l0.958-0.43l-0.035-0.287l-4.193-2.83l-0.34,0.133l2.462,7.524c1.25-0.562,4.121-0.957,7.483-0.973
		c3.362,0.016,6.233,0.411,7.483,0.973l2.462-7.524L200.127,51.293z"/>
</g>
<g>
	<ellipse fill="#FFFFFF" cx="203.034" cy="111.444" rx="6.976" ry="1.338"/>
	<path fill="#FFFFFF" d="M212.638,101.75l-4.027,2.83l-0.034,0.287l0.957,0.43c0.189,0.095,0.191,0.247,0.095,0.339l-2.53,2.135
		l-0.239-0.021l-1.792-2.641c-0.123-0.171-0.079-0.342,0.137-0.378l1.203-0.196v-0.303l-3.118-4.406h-0.513l-3.117,4.406v0.303
		l1.203,0.196c0.215,0.036,0.26,0.207,0.137,0.378l-1.793,2.641l-0.24,0.021l-2.361-2.135c-0.097-0.092-0.095-0.244,0.094-0.339
		l0.958-0.43l-0.035-0.287l-4.194-2.83l-0.34,0.133l2.463,7.524c1.25-0.562,4.121-0.957,7.482-0.973
		c3.362,0.016,6.233,0.411,7.483,0.973l2.463-7.524L212.638,101.75z"/>
</g>
<g>
	<ellipse fill="#FFFFFF" cx="215.514" cy="60.988" rx="6.977" ry="1.338"/>
	<path fill="#FFFFFF" d="M225.118,51.293l-4.027,2.83l-0.034,0.287l0.957,0.43c0.189,0.095,0.191,0.247,0.095,0.339l-2.529,2.135
		l-0.24-0.021l-1.792-2.641c-0.123-0.171-0.079-0.342,0.137-0.378l1.203-0.196v-0.304l-3.118-4.405h-0.513l-3.117,4.405v0.304
		l1.203,0.196c0.216,0.036,0.261,0.207,0.137,0.378l-1.792,2.641l-0.24,0.021l-2.362-2.163c-0.097-0.092-0.095-0.244,0.094-0.339
		l0.958-0.402l-0.035-0.287l-4.194-2.83l-0.339,0.133l2.462,7.524c1.25-0.562,4.121-0.957,7.483-0.973
		c3.361,0.016,6.232,0.411,7.482,0.973l2.463-7.524L225.118,51.293z"/>
</g>
<g>
	<path fill="#FFFFFF" d="M202.21,71.919c0-2.141-0.725-3.868-2.293-4.789c-0.983-0.577-2.313-0.766-3.954-0.766l-11.933-0.001
		v24.096h12.987c2.994,0,4.755,0.674,4.908,3.359h0.286L202.21,71.919z M193.449,73.432c0.255-0.022,0.355-0.075,0.388-0.272
		c0.026-0.164,0.058-0.446,0.085-0.929l0.059-1.073c0.037-0.669-0.005-0.727-0.425-0.765v-0.208h1.248l0.93,2.104l0.812-2.104h1.291
		v0.208c-0.404,0.037-0.425,0.058-0.409,0.616l0.053,1.779c0.016,0.589,0.026,0.605,0.409,0.643v0.207h-1.662v-0.207
		c0.398-0.038,0.414-0.054,0.408-0.643l-0.016-1.87h-0.022l-1.025,2.662h-0.286l-0.972-2.475h-0.011l-0.037,1.179
		c-0.017,0.456-0.011,0.711,0.01,0.875c0.022,0.197,0.139,0.245,0.483,0.272v0.207h-1.311V73.432z M196.458,78.653l-0.079-0.038
		c-0.435-0.202-0.93-0.477-0.93-1.046c0-0.6,0.436-1.089,1.269-1.089c0.165,0,0.335,0.021,0.489,0.064
		c0.122,0.031,0.207,0.052,0.275,0.075c0.021,0.207,0.059,0.467,0.117,0.828l-0.233,0.037c-0.117-0.35-0.303-0.727-0.723-0.727
		c-0.271,0-0.462,0.207-0.462,0.462c0,0.265,0.207,0.419,0.547,0.574l0.117,0.053c0.489,0.223,0.908,0.494,0.908,1.115
		c0,0.653-0.525,1.131-1.349,1.131c-0.213,0-0.431-0.042-0.574-0.09c-0.159-0.054-0.271-0.096-0.334-0.127
		c-0.043-0.245-0.112-0.531-0.176-0.887l0.234-0.069c0.11,0.309,0.425,0.898,0.945,0.898c0.275,0,0.488-0.181,0.488-0.526
		C196.989,78.977,196.782,78.802,196.458,78.653z M192.962,77.044c0.096,0.296,0.515,1.344,0.712,1.864
		c0.165-0.452,0.504-1.466,0.59-1.716c0.11-0.325,0.079-0.383-0.16-0.409l-0.159-0.017V76.56h1.286v0.208
		c-0.304,0.038-0.378,0.064-0.585,0.547c-0.032,0.074-0.68,1.652-1.078,2.735h-0.409c-0.367-0.956-0.865-2.268-1.057-2.768
		c-0.175-0.457-0.281-0.483-0.537-0.515V76.56h1.716v0.208l-0.181,0.021C192.904,76.81,192.904,76.857,192.962,77.044z
		 M191.424,70.106c0.973,0,1.722,0.712,1.722,1.764c0,1.137-0.776,1.848-1.795,1.848c-1.073,0-1.769-0.781-1.769-1.758
		C189.583,71.1,190.156,70.106,191.424,70.106z M185.518,73.639v-0.207c0.388-0.033,0.43-0.07,0.43-0.643v-1.753
		c0-0.573-0.042-0.611-0.387-0.642v-0.208h1.551c0.654,0,1.195,0.129,1.551,0.473c0.25,0.239,0.457,0.632,0.457,1.089
		c0,1.323-1.004,1.891-2.231,1.891H185.518z M189.054,83.141c-0.367,0.032-0.409,0.069-0.409,0.642v1.753
		c0,0.573,0.042,0.61,0.409,0.643v0.206h-1.721V86.18c0.366-0.033,0.408-0.07,0.408-0.643v-1.753c0-0.573-0.042-0.61-0.408-0.642
		v-0.208h1.721V83.141z M189.138,80.013h-1.323v-0.207c0.234-0.011,0.372-0.085,0.398-0.272c0.021-0.165,0.042-0.457,0.042-1.015
		v-0.977c0-0.393-0.011-0.462-0.116-0.611c-0.08-0.112-0.213-0.148-0.403-0.164V76.56h1.174l1.768,2.205h0.01v-0.712
		c0-0.558-0.021-0.85-0.042-1.015c-0.026-0.186-0.17-0.254-0.521-0.271V76.56h1.354v0.208c-0.266,0.011-0.404,0.085-0.43,0.271
		c-0.021,0.164-0.043,0.457-0.043,1.015v1.997h-0.457l-1.965-2.507h-0.011v0.977c0,0.558,0.021,0.85,0.043,1.015
		c0.026,0.187,0.169,0.255,0.52,0.272V80.013z M192.034,86.386h-2.635V86.18c0.404-0.033,0.446-0.07,0.446-0.643v-1.753
		c0-0.573-0.042-0.61-0.398-0.642v-0.208h1.727v0.208c-0.383,0.032-0.425,0.069-0.425,0.642v1.822c0,0.276,0.011,0.409,0.106,0.457
		c0.085,0.043,0.207,0.048,0.371,0.048c0.171,0,0.399-0.015,0.511-0.154c0.085-0.1,0.175-0.244,0.26-0.525l0.229,0.038
		C192.194,85.669,192.081,86.222,192.034,86.386z M194.997,86.386h-2.635V86.18c0.404-0.033,0.446-0.07,0.446-0.643v-1.753
		c0-0.573-0.042-0.61-0.398-0.642v-0.208h1.727v0.208c-0.383,0.032-0.425,0.069-0.425,0.642v1.822c0,0.276,0.011,0.409,0.106,0.457
		c0.085,0.043,0.207,0.048,0.371,0.048c0.171,0,0.399-0.015,0.511-0.154c0.085-0.1,0.175-0.244,0.26-0.525l0.229,0.038
		C195.158,85.669,195.045,86.222,194.997,86.386z M198.323,83.141c-0.304,0.037-0.377,0.064-0.585,0.547
		c-0.031,0.074-0.68,1.652-1.077,2.735h-0.41c-0.366-0.956-0.865-2.268-1.057-2.768c-0.175-0.456-0.281-0.483-0.537-0.515v-0.208
		h1.717v0.208l-0.182,0.021c-0.195,0.021-0.195,0.069-0.138,0.255c0.096,0.297,0.516,1.344,0.712,1.864
		c0.165-0.452,0.505-1.466,0.59-1.716c0.111-0.324,0.079-0.383-0.16-0.409l-0.158-0.016v-0.208h1.285V83.141z M199.97,70.393
		c-0.366,0.031-0.408,0.069-0.408,0.642v1.753c0,0.573,0.042,0.61,0.408,0.643v0.207h-1.721v-0.207
		c0.367-0.033,0.409-0.07,0.409-0.643v-1.753c0-0.573-0.042-0.611-0.409-0.642v-0.208h1.721V70.393z"/>
	<path fill="#FFFFFF" d="M187.112,70.452c-0.122,0-0.191,0.017-0.229,0.038c-0.026,0.01-0.031,0.133-0.031,0.265v2.04
		c0,0.472,0.116,0.563,0.371,0.563c0.457,0,0.92-0.504,0.92-1.445C188.143,70.771,187.564,70.452,187.112,70.452z"/>
	<path fill="#FFFFFF" d="M191.451,73.442c0.458,0,0.707-0.441,0.707-1.403c0-1.067-0.382-1.657-0.84-1.657
		c-0.408,0-0.748,0.467-0.748,1.396C190.57,72.741,190.93,73.442,191.451,73.442z"/>
</g>
<g>
	<polygon fill="#FFFFFF" points="216.823,84.012 216.494,85.026 217.174,85.026 216.839,84.012 	"/>
	<polygon fill="#FFFFFF" points="218.07,71.264 217.741,72.279 218.421,72.279 218.086,71.264 	"/>
	<path fill="#FFFFFF" d="M215.097,78.153c0,0.962,0.361,1.664,0.882,1.664c0.457,0,0.706-0.441,0.706-1.403
		c0-1.067-0.382-1.657-0.839-1.657C215.437,76.757,215.097,77.224,215.097,78.153z"/>
	<path fill="#FFFFFF" d="M210.125,66.364c-1.64,0-2.971,0.188-3.953,0.766c-1.568,0.921-2.293,2.648-2.293,4.789l-0.002,21.899
		h0.286c0.153-2.685,1.914-3.359,4.907-3.359h13.071V66.363L210.125,66.364z M212.924,70.185h1.173l1.768,2.205h0.011v-0.712
		c0-0.558-0.021-0.85-0.042-1.015c-0.027-0.185-0.171-0.254-0.521-0.271v-0.208h1.354v0.208c-0.266,0.01-0.404,0.085-0.431,0.271
		c-0.02,0.165-0.043,0.457-0.043,1.015v1.998h-0.456l-1.965-2.508h-0.012v0.978c0,0.558,0.023,0.85,0.043,1.014
		c0.027,0.187,0.17,0.255,0.52,0.272v0.207h-1.322v-0.207c0.233-0.012,0.371-0.085,0.398-0.272c0.021-0.164,0.042-0.456,0.042-1.014
		v-0.978c0-0.392-0.011-0.462-0.117-0.61c-0.079-0.112-0.212-0.148-0.402-0.165V70.185z M217.673,78.244
		c0,1.137-0.775,1.848-1.795,1.848c-1.073,0-1.769-0.781-1.769-1.758c0-0.86,0.573-1.854,1.842-1.854
		C216.924,76.48,217.673,77.192,217.673,78.244z M213.666,79.806v0.207h-1.721v-0.207c0.367-0.032,0.409-0.07,0.409-0.643V77.41
		c0-0.574-0.042-0.611-0.409-0.643V76.56h1.721v0.208c-0.366,0.032-0.408,0.069-0.408,0.643v1.753
		C213.257,79.736,213.299,79.773,213.666,79.806z M210.931,73.432c0.367-0.033,0.409-0.07,0.409-0.643v-1.753
		c0-0.573-0.042-0.611-0.409-0.642v-0.208h1.721v0.208c-0.366,0.031-0.408,0.069-0.408,0.642v1.753c0,0.573,0.042,0.61,0.408,0.643
		v0.207h-1.721V73.432z M210.964,79.806v0.207h-1.858v-0.207c0.425-0.032,0.467-0.07,0.467-0.643v-2.327h-0.09
		c-0.357,0-0.5,0.065-0.585,0.16c-0.063,0.079-0.127,0.217-0.196,0.515h-0.223c0.021-0.446,0.053-0.812,0.062-1.083h0.165
		c0.08,0.121,0.133,0.132,0.276,0.132h2.119c0.139,0,0.164-0.032,0.25-0.132h0.164c0.006,0.223,0.032,0.674,0.059,1.067
		l-0.233,0.016c-0.08-0.318-0.138-0.456-0.218-0.547c-0.091-0.096-0.266-0.128-0.521-0.128h-0.127v2.327
		C210.476,79.736,210.518,79.773,210.964,79.806z M207.442,73.639h-1.311v-0.207c0.255-0.022,0.355-0.075,0.388-0.272
		c0.026-0.164,0.058-0.446,0.085-0.929l0.059-1.073c0.037-0.669-0.005-0.727-0.425-0.765v-0.208h1.247l0.931,2.104l0.812-2.104
		h1.291v0.208c-0.404,0.037-0.425,0.058-0.409,0.616l0.053,1.779c0.016,0.589,0.026,0.605,0.409,0.643v0.207h-1.662v-0.207
		c0.397-0.038,0.414-0.054,0.408-0.643l-0.016-1.87h-0.022l-1.025,2.662h-0.286l-0.972-2.475h-0.011l-0.037,1.179
		c-0.017,0.456-0.011,0.711,0.01,0.875c0.021,0.197,0.139,0.245,0.483,0.272V73.639z M212.096,86.386h-1.662V86.18
		c0.397-0.037,0.414-0.054,0.408-0.643l-0.015-1.87h-0.022l-1.025,2.662h-0.286l-0.972-2.475h-0.011l-0.037,1.179
		c-0.017,0.457-0.011,0.711,0.011,0.875c0.021,0.197,0.138,0.245,0.483,0.272v0.206h-1.312V86.18
		c0.256-0.022,0.356-0.075,0.388-0.272c0.026-0.164,0.059-0.446,0.085-0.929l0.059-1.073c0.037-0.669-0.005-0.727-0.425-0.765
		v-0.208h1.249l0.929,2.104l0.812-2.104h1.291v0.208c-0.403,0.037-0.425,0.059-0.409,0.616l0.054,1.779
		c0.015,0.589,0.025,0.606,0.408,0.643V86.386z M215.119,86.386h-2.704V86.18c0.409-0.033,0.451-0.07,0.451-0.643v-1.753
		c0-0.573-0.042-0.61-0.398-0.642v-0.208h2.518c0.005,0.091,0.031,0.479,0.058,0.876l-0.233,0.016
		c-0.054-0.26-0.111-0.409-0.197-0.494c-0.084-0.091-0.26-0.123-0.541-0.123h-0.09c-0.202,0-0.213,0-0.213,0.186v1.025h0.266
		c0.457,0,0.473-0.031,0.526-0.435h0.233v1.253h-0.233c-0.054-0.467-0.069-0.5-0.526-0.5h-0.266v0.866
		c0,0.276,0.011,0.409,0.107,0.457c0.085,0.043,0.207,0.048,0.371,0.048c0.213,0,0.447-0.032,0.563-0.159
		c0.09-0.096,0.181-0.292,0.261-0.548l0.233,0.038C215.278,85.701,215.167,86.243,215.119,86.386z M218.836,86.386h-1.668V86.18
		l0.16-0.022c0.196-0.026,0.206-0.08,0.138-0.271l-0.191-0.542h-0.871l-0.16,0.51c-0.068,0.229-0.068,0.281,0.176,0.308l0.153,0.016
		v0.206h-1.237V86.18c0.272-0.037,0.352-0.06,0.526-0.505l1.062-2.746l0.366-0.075l0.361,1.004c0.229,0.633,0.456,1.259,0.658,1.801
		c0.171,0.461,0.267,0.488,0.526,0.521V86.386z M220.083,73.639h-1.668v-0.207l0.16-0.022c0.196-0.026,0.206-0.079,0.138-0.271
		l-0.191-0.542h-0.871l-0.16,0.51c-0.068,0.229-0.068,0.282,0.176,0.308l0.153,0.017v0.207h-1.237v-0.207
		c0.271-0.038,0.352-0.06,0.526-0.505l1.062-2.746l0.366-0.075l0.361,1.004c0.228,0.632,0.456,1.259,0.658,1.801
		c0.171,0.461,0.267,0.488,0.526,0.521V73.639z"/>
</g>
<circle fill="#FFFFFF" cx="196.854" cy="129.12" r="1.389"/>
<circle fill="#FFFFFF" cx="210.941" cy="131.431" r="1.389"/>
<path fill="#FFFFFF" d="M158.349,53.367L158.349,53.367L158.349,53.367z"/>
<path fill="#FFFFFF" d="M216.719,28.261L216.719,28.261L216.719,28.261z"/>
<path fill="#FFFFFF" d="M239.136,55.864L239.136,55.864L239.136,55.864z"/>
<path fill="#FFFFFF" d="M249.937,101.041L249.937,101.041L249.937,101.041z"/>
<circle fill="#FFFFFF" cx="202.979" cy="31.04" r="1.389"/>
<circle fill="#FFFFFF" cx="236.038" cy="43.984" r="1.389"/>
<g>
	<path fill="#FFFFFF" d="M167.757,103.671c0.534,0.768,0.804,1.59,0.802,2.441c-0.002,0.971-0.326,1.758-2.064,2.96l-5.015,3.575
		l-0.924-1.329c0,0,5.139-3.658,5.223-3.716c0.886-0.613,1.264-1.06,1.265-1.763c0.001-0.445-0.162-0.93-0.483-1.392
		c-0.503-0.724-1.147-0.954-1.716-0.955c-0.516-0.001-1.071,0.361-2.059,1.05l-4.717,3.2l-0.906-1.304l4.488-3.041
		c1.249-0.877,2.244-1.479,3.168-1.477C166.169,101.923,167.154,102.8,167.757,103.671z"/>
</g>
<g>
	<path fill="#FFFFFF" d="M151.728,93.878l9.544-3.346l0.527,1.446l-5.46,6.67l6.9-2.729l0.515,1.408l-9.434,3.623l-0.527-1.446
		l5.487-6.678l-7.038,2.462L151.728,93.878z"/>
</g>
<g>
	<path fill="#FFFFFF" d="M150.3,86.28l9.989-1.482l0.236,1.6l-9.988,1.481L150.3,86.28z"/>
</g>
<g>
	<path fill="#FFFFFF" d="M150.004,74.236l0.039-1.676l9.969,4.051l-0.07,1.663l-10.236,3.053l0.011-1.678l8.3-2.327L150.004,74.236z
		"/>
</g>
<path fill="#FFFFFF" d="M159.12,51.644c-1.427,0.003-2.087,0.819-2.997,2.465l-1.186,2.125l8.895,4.827l0.768-1.389l-3.696-2.018
	l0.216-0.399c0.622-1.125,0.837-1.296,2.423-1.162l2.882,0.255l0.823-1.492l-3.32-0.283c-0.667-0.062-1.193-0.111-1.62,0.013
	c-0.143,0.041-0.312,0.128-0.478,0.245c0.038-0.181,0.107-0.356,0.108-0.54c0.003-0.285-0.038-0.566-0.123-0.823
	c-0.194-0.593-0.617-1.073-1.257-1.428C160.081,51.777,159.604,51.643,159.12,51.644z M157.324,54.704
	c0.593-1.077,1.015-1.485,1.641-1.482c0.232,0,0.525,0.058,0.818,0.22c0.378,0.21,0.668,0.559,0.776,0.934
	c0.042,0.146,0.059,0.291,0.058,0.436c-0.005,0.6-0.339,1.203-0.689,1.833l-0.207,0.375l-2.846-1.529L157.324,54.704z"/>
<g>
	<path fill="#FFFFFF" d="M170.172,37.372l1.285-0.98l6.128,8.026l-1.285,0.981L170.172,37.372z"/>
</g>
<g>
	<path fill="#FFFFFF" d="M175.717,33.435l6.533-3.401l0.638,1.226l-2.542,1.323l4.025,7.733l-1.435,0.746l-4.025-7.732l-2.557,1.331
		L175.717,33.435z"/>
</g>
<g>
	<path fill="#FFFFFF" d="M192.013,26.963l1.703-0.475l-1.371,6.756l1.11,3.835l-1.54,0.445l-1.086-3.807l-4.794-5.004l1.66-0.481
		l3.45,3.595L192.013,26.963z"/>
</g>
<g>
	<path fill="#FFFFFF" d="M222.827,40.768l5.127-8.7l4.824,2.842l-0.701,1.191l-3.444-2.03l-1.418,2.407l3.242,1.91l-0.686,1.165
		l-3.243-1.911l-2.32,3.94L222.827,40.768z"/>
</g>
<g>
	<path fill="#FFFFFF" d="M248.775,63.264l3.676-4.4l0.572,1.742l-2.738,3.133l4.067,0.913l0.539,1.642l-5.564-1.347l-3.952,4.737
		l-0.562-1.713l2.983-3.477l-4.46-1.017l-0.544-1.657L248.775,63.264z"/>
</g>
<g>
	<path fill="#FFFFFF" d="M245.887,73.186l10.065-0.821l0.456,5.583l-1.379,0.112l-0.323-3.985l-2.784,0.227l0.306,3.752
		l-1.347,0.109l-0.308-3.751l-4.556,0.372L245.887,73.186z"/>
</g>
<path fill="#FFFFFF" d="M250.338,82.189c-1.168,0-2.239,0.315-3.088,0.931c-1.524,1.104-1.802,2.691-1.802,3.619
	c0,3.414,3.208,4.779,5.618,4.779c1.157,0.002,2.216-0.313,3.05-0.918c1.701-1.231,1.794-3.083,1.794-3.679
	C255.911,83.943,253.172,82.189,250.338,82.189z M251.133,89.885c-1.966,0-4.265-1.072-4.265-3.055c0-0.718,0.25-1.683,1.138-2.328
	c0.601-0.436,1.38-0.667,2.252-0.667c1.001,0,2.808,0.282,3.756,1.589c0.326,0.45,0.492,0.973,0.491,1.531
	c0,0.773-0.315,1.692-1.145,2.293C252.774,89.673,252.001,89.885,251.133,89.885z"/>
<path fill="#FFFFFF" d="M244.477,48.574c-1.021,0-2.107,0.324-3.155,0.988c-1.94,1.231-2.647,2.994-2.647,4.281
	c0,0.833,0.228,1.65,0.705,2.401c1.077,1.7,2.693,2.115,3.784,2.11c1.043-0.005,2.143-0.35,3.18-1.009
	c1.249-0.792,2.64-2.264,2.64-4.256c0-0.828-0.236-1.642-0.714-2.396C247.385,49.298,246,48.574,244.477,48.574z M242.905,56.801
	c-0.906,0-1.725-0.38-2.289-1.271c-0.288-0.453-0.428-0.942-0.431-1.438c-0.005-1.141,0.719-2.313,2.043-3.155
	c0.876-0.556,1.737-0.829,2.507-0.826c0.974,0,1.767,0.429,2.295,1.263c0.313,0.492,0.455,1.015,0.455,1.538
	c0,1.115-0.706,2.208-1.986,3.019C244.602,56.5,243.699,56.801,242.905,56.801z"/>
<path fill="#FFFFFF" d="M216.926,27.775c-2.105,0-3.938,1.417-4.677,3.935c-0.164,0.559-0.268,1.113-0.268,1.649
	c0,1.009,0.17,1.807,0.582,2.562c0.935,1.709,2.645,2.292,3.944,2.292c0.734,0,1.441-0.168,2.09-0.522
	c1.704-0.932,2.829-3.095,2.829-5.164c0-0.898-0.174-1.745-0.573-2.469C220.035,28.567,218.516,27.775,216.926,27.775z
	 M216.407,36.781c-0.731,0-1.787-0.357-2.378-1.436c-0.285-0.522-0.412-1.156-0.412-1.812c0-1.808,1.205-4.346,3.405-4.346
	c1.235,0,2.787,0.92,2.787,3.203C219.809,33.847,218.785,36.781,216.407,36.781z"/>
<path fill="#FFFFFF" d="M160.992,64.398l1.357,0.383l-1.532,5.546l-9.773-2.678l1.669-5.612l1.329,0.375l-1.227,4.043l2.695,0.74
	l1.039-3.673l1.3,0.37l-1.036,3.661l3.048,0.836L160.992,64.398z"/>
<g>
	<g>
		<path fill="#FFFFFF" d="M163.555,43.3c1.402-1.572,2.837-1.464,2.837-1.464l0.246,1.333c0,0-1.107,0.036-1.973,1.006
			c-0.377,0.423-0.567,0.864-0.567,1.261c0,0.328,0.128,0.613,0.384,0.843c0.7,0.623,1.896-0.07,2.644-0.37
			c0.576-0.238,1.394-0.571,2.211-0.571c0.61,0,1.24,0.173,1.816,0.688c0.672,0.601,1.01,1.354,1.01,2.146
			c0,0.858-0.334,1.621-1.004,2.372c-1.289,1.442-3.02,1.6-3.02,1.6l-0.345-1.351c1.021-0.236,1.793-0.628,2.263-1.154
			c0.368-0.412,0.549-0.874,0.549-1.28c0-0.381-0.159-0.736-0.471-1.015c-0.252-0.225-0.56-0.306-0.894-0.299
			c-0.649,0-1.426,0.371-2.068,0.638c-1.226,0.506-2.521,0.915-3.679-0.12c-0.59-0.526-0.903-1.189-0.903-1.924
			C162.59,44.86,162.899,44.034,163.555,43.3z"/>
	</g>
</g>
<path fill="#FFFFFF" d="M243.205,95.258l3.817,1.727l-0.189,0.43c-0.519,1.176-0.718,1.366-2.311,1.373l-2.892,0.002l-0.688,1.558
	l3.333-0.011c0.675,0,1.199,0.001,1.611-0.157c0.132-0.052,0.284-0.136,0.425-0.25c-0.009,0.087-0.039,0.17-0.039,0.257
	c-0.004,0.371,0.065,0.739,0.205,1.061c0.455,1.066,1.7,1.589,2.61,1.587c1.606-0.002,2.222-0.963,3.001-2.731
	c0.029-0.066,0.939-2.164,0.939-2.164l-9.182-4.136L243.205,95.258z M249.167,101.246c-0.455,0.001-1.229-0.261-1.52-1.014
	c-0.073-0.191-0.104-0.385-0.102-0.581c0.005-0.553,0.268-1.127,0.536-1.731l0.172-0.389l2.91,1.308l-0.322,0.779
	C250.297,100.852,249.946,101.245,249.167,101.246z"/>
<path fill="#FFFFFF" d="M237.886,104.811c-1.047,1.311-1.842,2.483-1.842,3.998c0,1.285,0.584,2.747,2.062,3.926
	c0.979,0.782,2.086,1.206,3.227,1.206c1.405,0,2.531-0.421,4.281-2.615l1.595-2.006l-7.892-6.301L237.886,104.811z M241.486,112.414
	c-0.804,0-1.556-0.31-2.34-0.935c-0.795-0.636-1.639-1.624-1.639-2.887c0-0.877,0.477-1.713,1.209-2.631l0.67-0.837l5.767,4.603
	l-0.44,0.552C243.641,111.621,242.911,112.414,241.486,112.414z"/>
<path fill="#FFFFFF" d="M260.898,79.279c0-31.849-25.952-57.76-57.851-57.76c-31.898,0-57.851,25.911-57.851,57.76
	c0,19.107,9.436,36.917,25.243,47.708c1.556,5.789,6.852,10.07,13.146,10.07c1.703,0,3.352-0.322,4.921-0.928
	c2.117,0.699,4.304,1.277,6.484,1.727c-0.613,1.754-1.51,3.417-2.364,4.855c0,0,0.019-0.004,0.048-0.01
	c-0.017,0.011-0.034,0.019-0.05,0.03l1.205,1.205c0.308-0.168,0.655-0.273,1.029-0.273c1.192,0,2.16,0.969,2.16,2.16
	c0,1.191-0.969,2.16-2.16,2.16c-1.039,0-1.951-0.666-2.43-1.379c0,0-0.281,0.972-0.281,2.252c-0.008,4.149,4.52,8.89,10.802,10.889
	c6.275-1.954,10.805-6.729,10.802-10.881c0-1.429-0.281-2.26-0.281-2.26c-0.482,0.581-1.265,1.379-2.444,1.379
	c-1.19,0-2.16-0.969-2.16-2.16c0-1.191,0.97-2.16,2.16-2.16c0.418,0,0.805,0.124,1.135,0.33l1.169-1.169
	c0.027,0.007,0.045,0.011,0.045,0.011c-0.661-1.581-1.145-3.036-1.473-4.431c10.401-1.401,19.177-5.803,26.156-13.14l-0.005-0.007
	C252.572,114.226,260.898,97.49,260.898,79.279z M183.586,135.433c-6.568,0-11.911-5.358-11.911-11.944
	c0-2.063,0.525-4.006,1.447-5.702c0.613,0.557,1.269,1.135,1.949,1.718c-0.578,1.224-0.912,2.585-0.912,4.025
	c0,3.583,1.808,6.543,5.227,8.559c1.963,1.158,4.186,2.203,6.539,3.113C185.162,135.355,184.38,135.433,183.586,135.433z
	 M203.047,118.053c-2.478,0-4.919-0.238-7.313-0.695c-2.308-4.526-7.038-7.439-12.148-7.439c-1.255,0-2.466,0.184-3.621,0.502
	c-9.821-7.299-15.681-18.906-15.681-31.142c0-21.38,17.389-38.773,38.763-38.773c21.373,0,38.763,17.394,38.763,38.773
	S224.42,118.053,203.047,118.053z M211.672,118.745c-1.162,1.658-1.854,3.964-2.061,6.298c-3.669-0.945-6.997-2.216-9.901-3.54
	c0.553-1.068,2.132-1.825,3.337-1.825C206.007,119.677,208.891,119.35,211.672,118.745z M199.384,119.507
	c-0.492,0.367-0.89,0.806-1.171,1.289c-1.465-0.711-3.304-1.627-4.507-2.3C195.411,118.873,197.634,119.351,199.384,119.507z
	 M183.586,111.543c3.991,0,7.726,2.046,9.915,5.326c-1.918-0.486-3.8-1.119-5.638-1.902l-0.005,0.012l-0.061-0.035
	c-1.284-0.605-2.659-0.912-4.089-0.912c-3.18,0-5.993,1.56-7.729,3.944c-0.732-0.405-1.463-0.832-2.181-1.277
	C175.952,113.587,179.534,111.543,183.586,111.543z M211.027,141.997c-2.133,0-3.883,1.51-3.883,3.826
	c0,2.268,1.774,3.826,3.883,3.826c0.321,0,0.627-0.054,0.924-0.131c-0.445,3.208-4.181,6.799-9,8.412
	c-4.781-1.601-8.516-5.219-9.01-8.409c0.296,0.076,0.6,0.128,0.919,0.128c2.301,0,3.883-1.61,3.883-3.826
	c0-2.113-1.659-3.771-3.8-3.818c0.654-1.194,1.279-2.462,1.742-3.823c2.652,0.461,5.264,0.713,7.693,0.713
	c1.991,0,3.926-0.108,5.815-0.3c0.25,1.095,0.622,2.239,1.059,3.421C211.177,142.012,211.104,141.997,211.027,141.997z
	 M204.378,137.272c-7.757,0-17.438-2.637-24.09-6.561c-2.016-1.189-4.418-3.4-4.418-7.181c0-1.021,0.201-1.994,0.554-2.89
	c2.483,2.052,5.05,3.976,6.659,4.858c0.371,0.203,0.584,0.302,1.016,0.302c1.033,0,1.87-0.841,1.87-1.878
	c0-0.793-0.43-1.436-1.14-1.747c-1.376-0.602-4.255-1.792-7.355-3.398c1.434-1.892,3.691-3.122,6.235-3.122
	c1.163,0,2.283,0.25,3.327,0.742l2.126,1.239c6.76,4.129,24.151,14.717,45.149,8.9C226.341,133.728,216.525,137.272,204.378,137.272
	z M236.947,124.021c-9.398,3.325-18.17,3.097-25.653,1.425c0.245-3.342,1.627-6.914,3.742-7.578
	c16.482-5.112,28.485-20.478,28.485-38.588c0-22.275-18.157-40.397-40.474-40.397c-22.317,0-40.474,18.122-40.474,40.397
	c0,12.392,5.788,24.164,15.532,31.796c-2.314,1.018-4.287,2.662-5.715,4.71c-0.739-0.504-1.451-1.025-2.109-1.566l-0.368,0.37
	c0.44,0.532,1.123,1.234,1.945,2.022c-1.199,2.018-1.895,4.367-1.895,6.879c0,0.391,0.026,0.776,0.06,1.159
	c-14.501-10.568-23.116-27.366-23.116-45.368c0-30.954,25.185-56.136,56.14-56.136c30.955,0,56.14,25.182,56.14,56.136
	C259.187,97.01,251.081,113.299,236.947,124.021z"/>
</svg>
